<?xml version="1.0" encoding="utf-8" standalone="no"?>
<!DOCTYPE svg PUBLIC "-//W3C//DTD SVG 1.1//EN"
  "http://www.w3.org/Graphics/SVG/1.1/DTD/svg11.dtd">
<svg xmlns:xlink="http://www.w3.org/1999/xlink" width="460.8pt" height="345.6pt" viewBox="0 0 460.8 345.6" xmlns="http://www.w3.org/2000/svg" version="1.1">
 <metadata>
  <rdf:RDF xmlns:dc="http://purl.org/dc/elements/1.1/" xmlns:cc="http://creativecommons.org/ns#" xmlns:rdf="http://www.w3.org/1999/02/22-rdf-syntax-ns#">
   <cc:Work>
    <dc:type rdf:resource="http://purl.org/dc/dcmitype/StillImage"/>
    <dc:date>2024-03-15T11:35:46.829397</dc:date>
    <dc:format>image/svg+xml</dc:format>
    <dc:creator>
     <cc:Agent>
      <dc:title>Matplotlib v3.8.2, https://matplotlib.org/</dc:title>
     </cc:Agent>
    </dc:creator>
   </cc:Work>
  </rdf:RDF>
 </metadata>
 <defs>
  <style type="text/css">*{stroke-linejoin: round; stroke-linecap: butt}</style>
 </defs>
 <g id="figure_1">
  <g id="patch_1">
   <path d="M 0 345.6 
L 460.8 345.6 
L 460.8 0 
L 0 0 
z
" style="fill: #ffffff"/>
  </g>
  <g id="axes_1">
   <g id="patch_2">
    <path d="M 32.56 317.72 
L 372.1 317.72 
L 372.1 10.8 
L 32.56 10.8 
z
" style="fill: #ffffff"/>
   </g>
   <g id="matplotlib.axis_1">
    <g id="xtick_1">
     <g id="line2d_1">
      <defs>
       <path id="m3d1be7c2ef" d="M 0 0 
L 0 3.5 
" style="stroke: #000000; stroke-width: 0.8"/>
      </defs>
      <g>
       <use xlink:href="#m3d1be7c2ef" x="46.227526" y="317.72" style="stroke: #000000; stroke-width: 0.8"/>
      </g>
     </g>
     <g id="text_1">
      <!-- −5.5 -->
      <g transform="translate(34.08612 332.318437) scale(0.1 -0.1)">
       <defs>
        <path id="DejaVuSans-2212" d="M 678 2272 
L 4684 2272 
L 4684 1741 
L 678 1741 
L 678 2272 
z
" transform="scale(0.015625)"/>
        <path id="DejaVuSans-35" d="M 691 4666 
L 3169 4666 
L 3169 4134 
L 1269 4134 
L 1269 2991 
Q 1406 3038 1543 3061 
Q 1681 3084 1819 3084 
Q 2600 3084 3056 2656 
Q 3513 2228 3513 1497 
Q 3513 744 3044 326 
Q 2575 -91 1722 -91 
Q 1428 -91 1123 -41 
Q 819 9 494 109 
L 494 744 
Q 775 591 1075 516 
Q 1375 441 1709 441 
Q 2250 441 2565 725 
Q 2881 1009 2881 1497 
Q 2881 1984 2565 2268 
Q 2250 2553 1709 2553 
Q 1456 2553 1204 2497 
Q 953 2441 691 2322 
L 691 4666 
z
" transform="scale(0.015625)"/>
        <path id="DejaVuSans-2e" d="M 684 794 
L 1344 794 
L 1344 0 
L 684 0 
L 684 794 
z
" transform="scale(0.015625)"/>
       </defs>
       <use xlink:href="#DejaVuSans-2212"/>
       <use xlink:href="#DejaVuSans-35" x="83.789062"/>
       <use xlink:href="#DejaVuSans-2e" x="147.412109"/>
       <use xlink:href="#DejaVuSans-35" x="179.199219"/>
      </g>
     </g>
    </g>
    <g id="xtick_2">
     <g id="line2d_2">
      <g>
       <use xlink:href="#m3d1be7c2ef" x="94.772811" y="317.72" style="stroke: #000000; stroke-width: 0.8"/>
      </g>
     </g>
     <g id="text_2">
      <!-- −5.0 -->
      <g transform="translate(82.631405 332.318437) scale(0.1 -0.1)">
       <defs>
        <path id="DejaVuSans-30" d="M 2034 4250 
Q 1547 4250 1301 3770 
Q 1056 3291 1056 2328 
Q 1056 1369 1301 889 
Q 1547 409 2034 409 
Q 2525 409 2770 889 
Q 3016 1369 3016 2328 
Q 3016 3291 2770 3770 
Q 2525 4250 2034 4250 
z
M 2034 4750 
Q 2819 4750 3233 4129 
Q 3647 3509 3647 2328 
Q 3647 1150 3233 529 
Q 2819 -91 2034 -91 
Q 1250 -91 836 529 
Q 422 1150 422 2328 
Q 422 3509 836 4129 
Q 1250 4750 2034 4750 
z
" transform="scale(0.015625)"/>
       </defs>
       <use xlink:href="#DejaVuSans-2212"/>
       <use xlink:href="#DejaVuSans-35" x="83.789062"/>
       <use xlink:href="#DejaVuSans-2e" x="147.412109"/>
       <use xlink:href="#DejaVuSans-30" x="179.199219"/>
      </g>
     </g>
    </g>
    <g id="xtick_3">
     <g id="line2d_3">
      <g>
       <use xlink:href="#m3d1be7c2ef" x="143.318096" y="317.72" style="stroke: #000000; stroke-width: 0.8"/>
      </g>
     </g>
     <g id="text_3">
      <!-- −4.5 -->
      <g transform="translate(131.17669 332.318437) scale(0.1 -0.1)">
       <defs>
        <path id="DejaVuSans-34" d="M 2419 4116 
L 825 1625 
L 2419 1625 
L 2419 4116 
z
M 2253 4666 
L 3047 4666 
L 3047 1625 
L 3713 1625 
L 3713 1100 
L 3047 1100 
L 3047 0 
L 2419 0 
L 2419 1100 
L 313 1100 
L 313 1709 
L 2253 4666 
z
" transform="scale(0.015625)"/>
       </defs>
       <use xlink:href="#DejaVuSans-2212"/>
       <use xlink:href="#DejaVuSans-34" x="83.789062"/>
       <use xlink:href="#DejaVuSans-2e" x="147.412109"/>
       <use xlink:href="#DejaVuSans-35" x="179.199219"/>
      </g>
     </g>
    </g>
    <g id="xtick_4">
     <g id="line2d_4">
      <g>
       <use xlink:href="#m3d1be7c2ef" x="191.863382" y="317.72" style="stroke: #000000; stroke-width: 0.8"/>
      </g>
     </g>
     <g id="text_4">
      <!-- −4.0 -->
      <g transform="translate(179.721976 332.318437) scale(0.1 -0.1)">
       <use xlink:href="#DejaVuSans-2212"/>
       <use xlink:href="#DejaVuSans-34" x="83.789062"/>
       <use xlink:href="#DejaVuSans-2e" x="147.412109"/>
       <use xlink:href="#DejaVuSans-30" x="179.199219"/>
      </g>
     </g>
    </g>
    <g id="xtick_5">
     <g id="line2d_5">
      <g>
       <use xlink:href="#m3d1be7c2ef" x="240.408667" y="317.72" style="stroke: #000000; stroke-width: 0.8"/>
      </g>
     </g>
     <g id="text_5">
      <!-- −3.5 -->
      <g transform="translate(228.267261 332.318437) scale(0.1 -0.1)">
       <defs>
        <path id="DejaVuSans-33" d="M 2597 2516 
Q 3050 2419 3304 2112 
Q 3559 1806 3559 1356 
Q 3559 666 3084 287 
Q 2609 -91 1734 -91 
Q 1441 -91 1130 -33 
Q 819 25 488 141 
L 488 750 
Q 750 597 1062 519 
Q 1375 441 1716 441 
Q 2309 441 2620 675 
Q 2931 909 2931 1356 
Q 2931 1769 2642 2001 
Q 2353 2234 1838 2234 
L 1294 2234 
L 1294 2753 
L 1863 2753 
Q 2328 2753 2575 2939 
Q 2822 3125 2822 3475 
Q 2822 3834 2567 4026 
Q 2313 4219 1838 4219 
Q 1578 4219 1281 4162 
Q 984 4106 628 3988 
L 628 4550 
Q 988 4650 1302 4700 
Q 1616 4750 1894 4750 
Q 2613 4750 3031 4423 
Q 3450 4097 3450 3541 
Q 3450 3153 3228 2886 
Q 3006 2619 2597 2516 
z
" transform="scale(0.015625)"/>
       </defs>
       <use xlink:href="#DejaVuSans-2212"/>
       <use xlink:href="#DejaVuSans-33" x="83.789062"/>
       <use xlink:href="#DejaVuSans-2e" x="147.412109"/>
       <use xlink:href="#DejaVuSans-35" x="179.199219"/>
      </g>
     </g>
    </g>
    <g id="xtick_6">
     <g id="line2d_6">
      <g>
       <use xlink:href="#m3d1be7c2ef" x="288.953952" y="317.72" style="stroke: #000000; stroke-width: 0.8"/>
      </g>
     </g>
     <g id="text_6">
      <!-- −3.0 -->
      <g transform="translate(276.812546 332.318437) scale(0.1 -0.1)">
       <use xlink:href="#DejaVuSans-2212"/>
       <use xlink:href="#DejaVuSans-33" x="83.789062"/>
       <use xlink:href="#DejaVuSans-2e" x="147.412109"/>
       <use xlink:href="#DejaVuSans-30" x="179.199219"/>
      </g>
     </g>
    </g>
    <g id="xtick_7">
     <g id="line2d_7">
      <g>
       <use xlink:href="#m3d1be7c2ef" x="337.499238" y="317.72" style="stroke: #000000; stroke-width: 0.8"/>
      </g>
     </g>
     <g id="text_7">
      <!-- −2.5 -->
      <g transform="translate(325.357831 332.318437) scale(0.1 -0.1)">
       <defs>
        <path id="DejaVuSans-32" d="M 1228 531 
L 3431 531 
L 3431 0 
L 469 0 
L 469 531 
Q 828 903 1448 1529 
Q 2069 2156 2228 2338 
Q 2531 2678 2651 2914 
Q 2772 3150 2772 3378 
Q 2772 3750 2511 3984 
Q 2250 4219 1831 4219 
Q 1534 4219 1204 4116 
Q 875 4013 500 3803 
L 500 4441 
Q 881 4594 1212 4672 
Q 1544 4750 1819 4750 
Q 2544 4750 2975 4387 
Q 3406 4025 3406 3419 
Q 3406 3131 3298 2873 
Q 3191 2616 2906 2266 
Q 2828 2175 2409 1742 
Q 1991 1309 1228 531 
z
" transform="scale(0.015625)"/>
       </defs>
       <use xlink:href="#DejaVuSans-2212"/>
       <use xlink:href="#DejaVuSans-32" x="83.789062"/>
       <use xlink:href="#DejaVuSans-2e" x="147.412109"/>
       <use xlink:href="#DejaVuSans-35" x="179.199219"/>
      </g>
     </g>
    </g>
    <g id="text_8">
     <!-- $\log(\ell)$ -->
     <g transform="translate(188.73 345.998125) scale(0.1 -0.1)">
      <defs>
       <path id="DejaVuSans-6c" d="M 603 4863 
L 1178 4863 
L 1178 0 
L 603 0 
L 603 4863 
z
" transform="scale(0.015625)"/>
       <path id="DejaVuSans-6f" d="M 1959 3097 
Q 1497 3097 1228 2736 
Q 959 2375 959 1747 
Q 959 1119 1226 758 
Q 1494 397 1959 397 
Q 2419 397 2687 759 
Q 2956 1122 2956 1747 
Q 2956 2369 2687 2733 
Q 2419 3097 1959 3097 
z
M 1959 3584 
Q 2709 3584 3137 3096 
Q 3566 2609 3566 1747 
Q 3566 888 3137 398 
Q 2709 -91 1959 -91 
Q 1206 -91 779 398 
Q 353 888 353 1747 
Q 353 2609 779 3096 
Q 1206 3584 1959 3584 
z
" transform="scale(0.015625)"/>
       <path id="DejaVuSans-67" d="M 2906 1791 
Q 2906 2416 2648 2759 
Q 2391 3103 1925 3103 
Q 1463 3103 1205 2759 
Q 947 2416 947 1791 
Q 947 1169 1205 825 
Q 1463 481 1925 481 
Q 2391 481 2648 825 
Q 2906 1169 2906 1791 
z
M 3481 434 
Q 3481 -459 3084 -895 
Q 2688 -1331 1869 -1331 
Q 1566 -1331 1297 -1286 
Q 1028 -1241 775 -1147 
L 775 -588 
Q 1028 -725 1275 -790 
Q 1522 -856 1778 -856 
Q 2344 -856 2625 -561 
Q 2906 -266 2906 331 
L 2906 616 
Q 2728 306 2450 153 
Q 2172 0 1784 0 
Q 1141 0 747 490 
Q 353 981 353 1791 
Q 353 2603 747 3093 
Q 1141 3584 1784 3584 
Q 2172 3584 2450 3431 
Q 2728 3278 2906 2969 
L 2906 3500 
L 3481 3500 
L 3481 434 
z
" transform="scale(0.015625)"/>
       <path id="DejaVuSans-28" d="M 1984 4856 
Q 1566 4138 1362 3434 
Q 1159 2731 1159 2009 
Q 1159 1288 1364 580 
Q 1569 -128 1984 -844 
L 1484 -844 
Q 1016 -109 783 600 
Q 550 1309 550 2009 
Q 550 2706 781 3412 
Q 1013 4119 1484 4856 
L 1984 4856 
z
" transform="scale(0.015625)"/>
       <path id="DejaVuSans-Oblique-2113" d="M 950 838 
Q 1078 213 1350 213 
Q 1531 213 1766 572 
L 2181 572 
Q 1994 253 1775 88 
Q 1538 -91 1319 -91 
Q 831 -91 634 344 
L 400 0 
L -88 0 
Q 250 459 500 888 
Q 469 1131 469 1397 
Q 469 1872 566 2347 
Q 931 4131 1256 4497 
Q 1481 4750 1866 4750 
Q 2256 4750 2256 4209 
Q 2253 3966 2197 3675 
Q 1972 2484 950 838 
z
M 947 1656 
Q 1531 2744 1709 3613 
Q 1803 4072 1803 4191 
Q 1803 4406 1725 4406 
Q 1384 4134 1081 2516 
Q 997 2063 947 1656 
z
" transform="scale(0.015625)"/>
       <path id="DejaVuSans-29" d="M 513 4856 
L 1013 4856 
Q 1481 4119 1714 3412 
Q 1947 2706 1947 2009 
Q 1947 1309 1714 600 
Q 1481 -109 1013 -844 
L 513 -844 
Q 928 -128 1133 580 
Q 1338 1288 1338 2009 
Q 1338 2731 1133 3434 
Q 928 4138 513 4856 
z
" transform="scale(0.015625)"/>
      </defs>
      <use xlink:href="#DejaVuSans-6c" transform="translate(0 0.015625)"/>
      <use xlink:href="#DejaVuSans-6f" transform="translate(27.783203 0.015625)"/>
      <use xlink:href="#DejaVuSans-67" transform="translate(88.964844 0.015625)"/>
      <use xlink:href="#DejaVuSans-28" transform="translate(152.441406 0.015625)"/>
      <use xlink:href="#DejaVuSans-Oblique-2113" transform="translate(191.455078 0.015625)"/>
      <use xlink:href="#DejaVuSans-29" transform="translate(232.763672 0.015625)"/>
     </g>
    </g>
   </g>
   <g id="matplotlib.axis_2">
    <g id="ytick_1">
     <g id="line2d_8">
      <defs>
       <path id="m79b1172be2" d="M 0 0 
L -3.5 0 
" style="stroke: #000000; stroke-width: 0.8"/>
      </defs>
      <g>
       <use xlink:href="#m79b1172be2" x="32.56" y="314.346733" style="stroke: #000000; stroke-width: 0.8"/>
      </g>
     </g>
     <g id="text_9">
      <!-- −5 -->
      <g transform="translate(10.817813 318.145952) scale(0.1 -0.1)">
       <use xlink:href="#DejaVuSans-2212"/>
       <use xlink:href="#DejaVuSans-35" x="83.789062"/>
      </g>
     </g>
    </g>
    <g id="ytick_2">
     <g id="line2d_9">
      <g>
       <use xlink:href="#m79b1172be2" x="32.56" y="264.889599" style="stroke: #000000; stroke-width: 0.8"/>
      </g>
     </g>
     <g id="text_10">
      <!-- −4 -->
      <g transform="translate(10.817813 268.688818) scale(0.1 -0.1)">
       <use xlink:href="#DejaVuSans-2212"/>
       <use xlink:href="#DejaVuSans-34" x="83.789062"/>
      </g>
     </g>
    </g>
    <g id="ytick_3">
     <g id="line2d_10">
      <g>
       <use xlink:href="#m79b1172be2" x="32.56" y="215.432465" style="stroke: #000000; stroke-width: 0.8"/>
      </g>
     </g>
     <g id="text_11">
      <!-- −3 -->
      <g transform="translate(10.817813 219.231684) scale(0.1 -0.1)">
       <use xlink:href="#DejaVuSans-2212"/>
       <use xlink:href="#DejaVuSans-33" x="83.789062"/>
      </g>
     </g>
    </g>
    <g id="ytick_4">
     <g id="line2d_11">
      <g>
       <use xlink:href="#m79b1172be2" x="32.56" y="165.975332" style="stroke: #000000; stroke-width: 0.8"/>
      </g>
     </g>
     <g id="text_12">
      <!-- −2 -->
      <g transform="translate(10.817813 169.77455) scale(0.1 -0.1)">
       <use xlink:href="#DejaVuSans-2212"/>
       <use xlink:href="#DejaVuSans-32" x="83.789062"/>
      </g>
     </g>
    </g>
    <g id="ytick_5">
     <g id="line2d_12">
      <g>
       <use xlink:href="#m79b1172be2" x="32.56" y="116.518198" style="stroke: #000000; stroke-width: 0.8"/>
      </g>
     </g>
     <g id="text_13">
      <!-- −1 -->
      <g transform="translate(10.817813 120.317417) scale(0.1 -0.1)">
       <defs>
        <path id="DejaVuSans-31" d="M 794 531 
L 1825 531 
L 1825 4091 
L 703 3866 
L 703 4441 
L 1819 4666 
L 2450 4666 
L 2450 531 
L 3481 531 
L 3481 0 
L 794 0 
L 794 531 
z
" transform="scale(0.015625)"/>
       </defs>
       <use xlink:href="#DejaVuSans-2212"/>
       <use xlink:href="#DejaVuSans-31" x="83.789062"/>
      </g>
     </g>
    </g>
    <g id="ytick_6">
     <g id="line2d_13">
      <g>
       <use xlink:href="#m79b1172be2" x="32.56" y="67.061064" style="stroke: #000000; stroke-width: 0.8"/>
      </g>
     </g>
     <g id="text_14">
      <!-- 0 -->
      <g transform="translate(19.1975 70.860283) scale(0.1 -0.1)">
       <use xlink:href="#DejaVuSans-30"/>
      </g>
     </g>
    </g>
    <g id="ytick_7">
     <g id="line2d_14">
      <g>
       <use xlink:href="#m79b1172be2" x="32.56" y="17.603931" style="stroke: #000000; stroke-width: 0.8"/>
      </g>
     </g>
     <g id="text_15">
      <!-- 1 -->
      <g transform="translate(19.1975 21.403149) scale(0.1 -0.1)">
       <use xlink:href="#DejaVuSans-31"/>
      </g>
     </g>
    </g>
    <g id="text_16">
     <!-- $\log(S_p(\ell))$ -->
     <g transform="translate(3.717813 187.31) rotate(-90) scale(0.1 -0.1)">
      <defs>
       <path id="DejaVuSans-Oblique-53" d="M 3859 4513 
L 3738 3897 
Q 3422 4066 3111 4152 
Q 2800 4238 2509 4238 
Q 1944 4238 1609 3991 
Q 1275 3744 1275 3334 
Q 1275 3109 1398 2989 
Q 1522 2869 2034 2731 
L 2413 2638 
Q 3053 2472 3303 2217 
Q 3553 1963 3553 1503 
Q 3553 797 2998 353 
Q 2444 -91 1538 -91 
Q 1166 -91 791 -17 
Q 416 56 38 206 
L 166 856 
Q 513 641 861 531 
Q 1209 422 1556 422 
Q 2147 422 2503 684 
Q 2859 947 2859 1369 
Q 2859 1650 2717 1795 
Q 2575 1941 2106 2059 
L 1728 2156 
Q 1081 2325 845 2545 
Q 609 2766 609 3163 
Q 609 3859 1145 4304 
Q 1681 4750 2541 4750 
Q 2875 4750 3203 4690 
Q 3531 4631 3859 4513 
z
" transform="scale(0.015625)"/>
       <path id="DejaVuSans-Oblique-70" d="M 3175 2156 
Q 3175 2616 2975 2859 
Q 2775 3103 2400 3103 
Q 2144 3103 1911 2972 
Q 1678 2841 1497 2591 
Q 1319 2344 1212 1994 
Q 1106 1644 1106 1300 
Q 1106 863 1306 627 
Q 1506 391 1875 391 
Q 2147 391 2380 519 
Q 2613 647 2778 891 
Q 2956 1147 3065 1494 
Q 3175 1841 3175 2156 
z
M 1394 2969 
Q 1625 3272 1939 3428 
Q 2253 3584 2638 3584 
Q 3175 3584 3472 3232 
Q 3769 2881 3769 2247 
Q 3769 1728 3584 1258 
Q 3400 788 3053 416 
Q 2822 169 2531 39 
Q 2241 -91 1919 -91 
Q 1547 -91 1294 64 
Q 1041 219 916 525 
L 556 -1331 
L -19 -1331 
L 922 3500 
L 1497 3500 
L 1394 2969 
z
" transform="scale(0.015625)"/>
      </defs>
      <use xlink:href="#DejaVuSans-6c" transform="translate(0 0.015625)"/>
      <use xlink:href="#DejaVuSans-6f" transform="translate(27.783203 0.015625)"/>
      <use xlink:href="#DejaVuSans-67" transform="translate(88.964844 0.015625)"/>
      <use xlink:href="#DejaVuSans-28" transform="translate(152.441406 0.015625)"/>
      <use xlink:href="#DejaVuSans-Oblique-53" transform="translate(191.455078 0.015625)"/>
      <use xlink:href="#DejaVuSans-Oblique-70" transform="translate(254.931641 -16.390625) scale(0.7)"/>
      <use xlink:href="#DejaVuSans-28" transform="translate(302.099609 0.015625)"/>
      <use xlink:href="#DejaVuSans-Oblique-2113" transform="translate(341.113281 0.015625)"/>
      <use xlink:href="#DejaVuSans-29" transform="translate(382.421875 0.015625)"/>
      <use xlink:href="#DejaVuSans-29" transform="translate(421.435547 0.015625)"/>
     </g>
    </g>
   </g>
   <g id="line2d_15">
    <path d="M 47.993636 156.728472 
L 62.517429 154.207181 
L 75.148649 151.980275 
L 90.746044 149.27056 
L 102.918248 147.113912 
L 114.863556 145.031362 
L 124.486283 143.316388 
L 133.240705 141.776218 
L 142.123199 140.198077 
L 151.038205 138.621664 
L 158.488497 137.292247 
L 166.073151 135.946444 
L 172.489109 134.79713 
L 182.508436 133.007886 
L 189.005873 131.838647 
L 195.586282 130.661223 
L 201.288463 129.631299 
L 207.109863 128.586538 
L 212.19027 127.665828 
L 218.18834 126.585056 
L 223.470779 125.624463 
L 229.175625 124.602539 
L 233.576021 123.790148 
L 238.731656 122.862662 
L 243.925201 121.904986 
L 249.137321 120.963372 
L 253.546505 120.153778 
L 258.278672 119.299402 
L 261.558374 118.686449 
L 265.92402 117.894409 
L 270.101783 117.12318 
L 274.32492 116.348677 
L 278.163146 115.638352 
L 282.257104 114.891445 
L 286.185397 114.162602 
L 290.330513 113.403848 
L 294.128671 112.691922 
L 297.954493 111.990403 
L 301.306349 111.365692 
L 304.864471 110.712239 
L 308.296793 110.07125 
L 311.907745 109.406225 
L 315.103801 108.808232 
L 318.474454 108.186645 
L 321.732004 107.576114 
L 325.141886 106.94578 
L 328.186595 106.374252 
L 331.380725 105.783193 
L 334.473112 105.201928 
L 337.696784 104.60422 
L 340.597284 104.05837 
L 343.626939 103.496233 
L 346.564908 102.942782 
L 349.717206 102.360687 
L 352.479061 101.839916 
L 355.353525 101.305481 
L 356.666364 101.057793 
L 356.666364 101.057793 
" clip-path="url(#pd46ef651e9)" style="fill: none; stroke: #1f77b4; stroke-width: 1.5; stroke-linecap: square"/>
   </g>
   <g id="line2d_16">
    <path d="M 47.993636 241.909752 
L 50.206282 241.243776 
L 52.369624 240.334707 
L 54.485812 239.698999 
L 56.556858 238.826871 
L 58.584647 238.218861 
L 60.570949 237.380707 
L 62.517429 236.798137 
L 64.425651 235.991336 
L 66.297091 235.432212 
L 68.133139 234.654439 
L 69.93511 234.116991 
L 71.704246 233.36617 
L 73.441721 232.84882 
L 75.148649 232.125035 
L 78.475033 231.122823 
L 80.096442 230.440879 
L 81.691218 229.966887 
L 83.260222 229.295517 
L 84.804272 228.837314 
L 86.324152 228.185939 
L 87.820604 227.74254 
L 89.294342 227.109965 
L 90.746044 226.680468 
L 92.17636 226.065607 
L 93.58591 225.649189 
L 94.975289 225.051049 
L 96.345065 224.646958 
L 97.695786 224.064627 
L 99.027972 223.672174 
L 100.342127 223.104814 
L 101.638731 222.723366 
L 102.918248 222.170204 
L 104.181122 221.799176 
L 105.427779 221.259499 
L 106.658633 220.898353 
L 107.874077 220.371503 
L 109.074494 220.019738 
L 110.26025 219.51445 
L 112.589182 218.825997 
L 113.733028 218.324909 
L 114.863556 217.9941 
L 115.981071 217.506767 
L 117.085869 217.183886 
L 118.178237 216.706965 
L 119.258451 216.391652 
L 120.32678 215.924695 
L 121.383481 215.616613 
L 122.428804 215.1592 
L 123.462994 214.858035 
L 124.486283 214.409771 
L 125.498899 214.115229 
L 126.501063 213.675746 
L 127.492989 213.38755 
L 128.474883 212.9565 
L 129.446946 212.674391 
L 130.409374 212.251447 
L 131.362354 211.975181 
L 132.306072 211.560035 
L 133.240705 211.289381 
L 134.166427 210.881759 
L 135.991804 210.253432 
L 139.542722 209.054525 
L 140.410524 208.670565 
L 141.270638 208.422312 
L 142.123199 208.044749 
L 142.96834 207.801068 
L 143.806186 207.429688 
L 144.636865 207.190418 
L 145.460497 206.825016 
L 146.2772 206.590005 
L 147.087091 206.230386 
L 147.890282 205.999491 
L 148.686883 205.645468 
L 149.477001 205.418552 
L 150.260741 205.06995 
L 151.038205 204.846882 
L 153.333928 203.945932 
L 154.087262 203.730194 
L 155.576619 203.184631 
L 159.203022 201.913577 
L 161.31558 201.081793 
L 163.383149 200.379739 
L 165.407605 199.581824 
L 167.390709 198.908792 
L 169.334118 198.142064 
L 171.239388 197.495768 
L 172.489109 197.036856 
L 174.334037 196.4106 
L 176.14456 195.694301 
L 177.921938 195.091274 
L 179.667363 194.400142 
L 181.381963 193.818699 
L 183.066808 193.151003 
L 184.722914 192.589665 
L 186.351244 191.946872 
L 188.480722 191.252976 
L 190.047729 190.630324 
L 191.589846 190.107646 
L 193.107852 189.504033 
L 194.602489 188.997688 
L 196.074466 188.411972 
L 197.524459 187.920979 
L 198.953115 187.367127 
L 201.748867 186.40555 
L 203.117122 185.859736 
L 204.466362 185.402977 
L 205.797109 184.871807 
L 207.109863 184.427603 
L 208.405104 183.910306 
L 210.105644 183.327068 
L 217.799794 180.482409 
L 218.960799 180.090079 
L 219.727161 179.806966 
L 221.617012 179.144286 
L 222.733514 178.6963 
L 223.837322 178.323368 
L 224.928722 177.885259 
L 226.00799 177.520779 
L 227.075392 177.092119 
L 228.131188 176.735721 
L 228.828726 176.477801 
L 229.865726 176.12762 
L 230.891768 175.714965 
L 231.907079 175.372258 
L 232.911883 174.967991 
L 233.906395 174.63245 
L 234.890822 174.236233 
L 235.865369 173.90757 
L 236.83023 173.525921 
L 238.731656 172.877963 
L 239.668584 172.500278 
L 240.596558 172.187444 
L 242.123738 171.591822 
L 243.028648 171.286936 
L 244.222222 170.845015 
L 251.091022 168.30212 
L 252.734891 167.748911 
L 254.083836 167.221555 
L 255.414296 166.755903 
L 256.72677 166.242697 
L 258.278672 165.724145 
L 259.553241 165.222194 
L 260.811294 164.78204 
L 262.053254 164.295942 
L 263.279527 163.867101 
L 264.249515 163.507575 
L 265.448529 163.088203 
L 266.632917 162.624256 
L 267.80303 162.215181 
L 268.95921 161.76223 
L 270.328693 161.302957 
L 271.455355 160.861226 
L 272.569093 160.472029 
L 273.670201 160.04034 
L 274.75896 159.66005 
L 275.621261 159.340359 
L 276.688479 158.967559 
L 277.744093 158.553443 
L 278.788353 158.188835 
L 279.821501 157.783513 
L 281.04694 157.373463 
L 282.056455 156.977204 
L 283.055581 156.62853 
L 284.04453 156.240338 
L 285.023507 155.89886 
L 286.185397 155.46813 
L 287.143129 155.13408 
L 288.091505 154.761637 
L 289.030708 154.434209 
L 290.145888 154.020806 
L 291.065519 153.700224 
L 292.338542 153.208155 
L 293.237732 152.894884 
L 294.305882 152.498962 
L 299.477163 150.620896 
L 300.645171 150.169275 
L 301.799294 149.760351 
L 302.777739 149.397859 
L 303.585644 149.116876 
L 304.705536 148.683837 
L 305.812657 148.291832 
L 306.751672 147.944058 
L 307.835833 147.560247 
L 308.908022 147.14567 
L 309.9685 146.770479 
L 310.868351 146.43735 
L 311.907745 146.069688 
L 312.936129 145.672089 
L 314.09824 145.272497 
L 315.389201 144.78123 
L 316.381548 144.430571 
L 317.363854 144.051259 
L 318.474454 143.672512 
L 319.435915 143.300859 
L 320.387949 142.964771 
L 321.196613 142.665774 
L 322.131619 142.335777 
L 323.057707 141.977888 
L 324.105389 141.601165 
L 327.560106 140.359936 
L 328.684891 139.929657 
L 329.550803 139.624672 
L 330.531052 139.26278 
L 331.380725 138.963629 
L 332.462349 138.550095 
L 333.650188 138.140307 
L 334.706958 137.73637 
L 335.752349 137.364843 
L 336.67223 137.02568 
L 337.696784 136.661729 
L 338.710639 136.274506 
L 339.824865 135.890965 
L 340.816851 135.51219 
L 341.9073 135.137118 
L 342.878342 134.766455 
L 343.839767 134.425624 
L 344.686448 134.11406 
L 345.630221 133.779659 
L 346.564908 133.423189 
L 347.593004 133.070391 
L 348.509073 132.721146 
L 349.516892 132.375579 
L 350.613542 131.96038 
L 351.501679 131.646401 
L 352.479061 131.287564 
L 353.350371 130.979735 
L 354.30941 130.627819 
L 355.16452 130.325915 
L 356.199528 129.934702 
L 356.666364 129.775193 
L 356.666364 129.775193 
" clip-path="url(#pd46ef651e9)" style="fill: none; stroke: #ff7f0e; stroke-width: 1.5; stroke-linecap: square"/>
   </g>
   <g id="line2d_17">
    <path d="M 47.993636 303.769091 
L 50.206282 303.206118 
L 52.369624 301.508848 
L 54.485812 300.970996 
L 56.556858 299.347818 
L 58.584647 298.832945 
L 60.570949 297.277673 
L 62.517429 296.7839 
L 64.425651 295.291092 
L 66.297091 294.816762 
L 68.133139 293.381605 
L 69.93511 292.925247 
L 71.704246 291.543467 
L 73.441721 291.10377 
L 75.148649 289.783273 
L 78.475033 288.913135 
L 80.096442 287.651483 
L 81.691218 287.245096 
L 83.260222 286.012172 
L 84.804272 285.619055 
L 86.324152 284.425766 
L 87.820604 284.045088 
L 89.294342 282.888967 
L 90.746044 282.519966 
L 92.17636 281.398775 
L 93.58591 281.040759 
L 94.975289 279.952455 
L 96.345065 279.604791 
L 97.695786 278.547505 
L 99.027972 278.209613 
L 100.342127 277.181632 
L 101.638731 276.852979 
L 102.918248 275.852728 
L 104.181122 275.532825 
L 105.427779 274.558851 
L 106.658633 274.247245 
L 107.874077 273.298224 
L 109.074494 272.994481 
L 110.26025 272.11956 
L 112.589182 271.480456 
L 113.733028 270.581011 
L 114.863556 270.29359 
L 115.981071 269.417392 
L 117.085869 269.136692 
L 118.178237 268.280744 
L 119.258451 268.006459 
L 120.32678 267.169851 
L 121.383481 266.901695 
L 122.428804 266.083575 
L 123.462994 265.821283 
L 124.486283 265.020854 
L 125.498899 264.764175 
L 126.501063 263.980693 
L 127.492989 263.729393 
L 128.474883 262.962157 
L 129.446946 262.716016 
L 130.409374 261.96437 
L 131.362354 261.723182 
L 132.306072 260.986507 
L 133.240705 260.750077 
L 134.166427 260.027874 
L 135.083405 259.795938 
L 136.891783 258.860041 
L 137.783496 258.633867 
L 138.667093 257.941706 
L 139.542722 257.719496 
L 140.410524 257.04029 
L 141.270638 256.822128 
L 142.123199 256.155183 
L 142.96834 255.940926 
L 143.806186 255.285809 
L 144.636865 255.07532 
L 145.460497 254.431622 
L 146.2772 254.224771 
L 147.087091 253.592102 
L 147.890282 253.388766 
L 148.686883 252.766757 
L 149.477001 252.56682 
L 150.260741 251.955119 
L 151.038205 251.75847 
L 151.809493 251.156744 
L 152.574702 250.963277 
L 153.333928 250.371207 
L 154.087262 250.18082 
L 154.834796 249.598539 
L 156.312816 249.147414 
L 157.043474 248.652542 
L 157.768674 248.46875 
L 158.488497 247.905975 
L 159.203022 247.724939 
L 159.912328 247.170656 
L 160.616489 246.992323 
L 161.31558 246.446252 
L 162.009674 246.270543 
L 162.69884 245.732446 
L 163.383149 245.559285 
L 164.062669 245.028934 
L 164.737466 244.85825 
L 165.407605 244.335427 
L 166.073151 244.167149 
L 166.734165 243.651644 
L 167.390709 243.485707 
L 168.042844 242.97732 
L 168.690627 242.813659 
L 169.334118 242.312197 
L 169.973371 242.150752 
L 170.608443 241.656031 
L 171.239388 241.496742 
L 171.866259 241.010986 
L 173.107988 240.687061 
L 173.722948 240.214487 
L 174.334037 240.059834 
L 174.941304 239.585801 
L 175.544796 239.433125 
L 176.14456 238.965129 
L 176.740642 238.814385 
L 177.333087 238.352271 
L 177.921938 238.203411 
L 178.50724 237.747034 
L 179.089034 237.600012 
L 179.667363 237.149233 
L 180.242267 237.004004 
L 180.813787 236.558688 
L 181.381963 236.415209 
L 181.946833 235.975227 
L 182.508436 235.833457 
L 183.066808 235.398683 
L 183.621988 235.258583 
L 184.174012 234.828896 
L 184.722914 234.690426 
L 185.268731 234.265714 
L 185.811496 234.128834 
L 186.351244 233.722118 
L 187.421821 233.440418 
L 187.952715 233.024752 
L 188.480722 232.891317 
L 189.005873 232.481979 
L 189.528198 232.350026 
L 190.047729 231.945206 
L 190.564494 231.814701 
L 191.078524 231.414301 
L 191.589846 231.285214 
L 192.09849 230.889138 
L 192.604483 230.76144 
L 193.107852 230.369597 
L 193.608625 230.243257 
L 194.106829 229.855559 
L 194.602489 229.730549 
L 195.095632 229.34691 
L 195.586282 229.223202 
L 196.074466 228.843538 
L 196.560207 228.721107 
L 197.04353 228.345338 
L 197.524459 228.224157 
L 198.003017 227.852227 
L 198.479228 227.732248 
L 199.4247 227.245281 
L 199.894006 227.127039 
L 200.361054 226.763157 
L 200.825866 226.645858 
L 201.288463 226.285783 
L 201.748867 226.169634 
L 202.207098 225.813067 
L 202.663176 225.698044 
L 203.117122 225.344919 
L 203.568955 225.231003 
L 204.018696 224.881254 
L 204.466362 224.768422 
L 204.911974 224.421987 
L 205.355551 224.310219 
L 205.797109 223.967036 
L 206.236669 223.856313 
L 206.674248 223.516321 
L 207.109863 223.406624 
L 207.543533 223.069766 
L 207.975274 222.961076 
L 208.405104 222.627295 
L 208.83304 222.519595 
L 209.259097 222.188972 
L 210.105644 221.907116 
L 210.526165 221.64854 
L 210.944873 221.543021 
L 211.361783 221.218827 
L 211.77691 221.114211 
L 212.19027 220.792901 
L 212.601878 220.689203 
L 213.011748 220.370696 
L 213.419895 220.267899 
L 213.826333 219.952148 
L 214.231077 219.850238 
L 214.634141 219.537196 
L 215.035538 219.436156 
L 215.435283 219.125778 
L 215.833389 219.025595 
L 216.229869 218.717836 
L 216.624736 218.618496 
L 217.018004 218.313312 
L 217.409686 218.2148 
L 217.799794 217.91215 
L 218.18834 217.814454 
L 218.575338 217.514296 
L 218.960799 217.417401 
L 219.344737 217.120506 
L 220.108086 216.918797 
L 220.487522 216.632967 
L 220.86548 216.537825 
L 221.241973 216.245483 
L 221.617012 216.151098 
L 221.990608 215.861088 
L 222.362771 215.767452 
L 222.733514 215.479734 
L 223.102846 215.386836 
L 223.470779 215.101374 
L 223.837322 215.009202 
L 224.202487 214.725962 
L 224.566284 214.634505 
L 224.928722 214.353452 
L 225.289813 214.2627 
L 225.649565 213.983801 
L 226.00799 213.893743 
L 226.365096 213.616967 
L 226.720894 213.527591 
L 227.075392 213.252906 
L 227.428601 213.164203 
L 227.78053 212.891579 
L 228.131188 212.803538 
L 228.480583 212.537713 
L 229.175625 212.360361 
L 229.521289 212.090217 
L 229.865726 212.003628 
L 230.208946 211.737484 
L 230.550957 211.651527 
L 230.891768 211.38732 
L 231.231386 211.301986 
L 231.56982 211.039687 
L 231.907079 210.954967 
L 232.243171 210.694549 
L 232.578103 210.610436 
L 232.911883 210.351873 
L 233.24452 210.268357 
L 233.576021 210.011622 
L 233.906395 209.928696 
L 234.235647 209.673765 
L 234.563788 209.591419 
L 234.890822 209.338267 
L 235.216759 209.256494 
L 235.541606 209.005097 
L 235.865369 208.923889 
L 236.188056 208.674231 
L 236.509674 208.593572 
L 237.149732 208.265513 
L 237.468185 208.185829 
L 237.785598 207.939681 
L 238.101976 207.860252 
L 238.417326 207.616047 
L 238.731656 207.537151 
L 239.044971 207.294581 
L 239.357278 207.216212 
L 239.668584 206.975255 
L 239.978895 206.897407 
L 240.288218 206.658042 
L 240.596558 206.580707 
L 240.903922 206.342914 
L 241.210316 206.266086 
L 241.515746 206.029845 
L 241.820218 205.953517 
L 242.123738 205.718807 
L 242.426313 205.642973 
L 242.727947 205.409775 
L 243.028648 205.334429 
L 243.32842 205.102725 
L 243.627269 205.027859 
L 243.925201 204.797683 
L 244.518336 204.579273 
L 246.566232 203.523785 
L 246.855294 203.451345 
L 247.143498 203.228561 
L 247.430849 203.156567 
L 247.717352 202.935148 
L 248.003012 202.863594 
L 248.287834 202.643524 
L 248.571823 202.572405 
L 248.854984 202.353669 
L 249.137321 202.28298 
L 249.41884 202.06556 
L 249.699544 201.995296 
L 249.97944 201.779178 
L 250.258531 201.709334 
L 250.536822 201.494502 
L 250.814317 201.425073 
L 251.091022 201.211834 
L 251.642077 201.061121 
L 252.462839 200.582302 
L 252.734891 200.514183 
L 253.006184 200.304653 
L 253.27672 200.236928 
L 253.546505 200.028609 
L 253.815542 199.961275 
L 254.61821 199.481266 
L 254.884298 199.414701 
L 255.678214 198.940134 
L 255.941417 198.874319 
L 256.72677 198.405074 
L 256.987149 198.339994 
L 257.764123 197.877913 
L 258.278672 197.749607 
L 259.045419 197.288991 
L 259.299662 197.225415 
L 260.05842 196.772061 
L 260.310027 196.709172 
L 261.06096 196.260685 
L 261.309986 196.198469 
L 262.053254 195.754748 
L 262.29975 195.69319 
L 263.035508 195.254137 
L 263.279527 195.193224 
L 264.007925 194.769988 
L 264.970699 194.393102 
L 265.686566 193.965848 
L 265.92402 193.906562 
L 266.632917 193.483643 
L 266.868071 193.424957 
L 267.570133 193.006289 
L 267.80303 192.94819 
L 268.498389 192.53369 
L 268.729073 192.476167 
L 269.417854 192.065776 
L 269.874341 191.880728 
L 272.569093 190.578458 
L 273.231255 190.184097 
L 273.888931 189.906393 
L 274.542183 189.517571 
L 275.191068 189.243742 
L 275.835645 188.971496 
L 276.475972 188.590251 
L 277.112103 188.321726 
L 277.744093 187.945676 
L 278.371996 187.680782 
L 278.995864 187.309782 
L 279.615749 187.048425 
L 280.231702 186.683202 
L 281.04694 186.373877 
L 281.653907 186.012979 
L 282.257104 185.758692 
L 282.856576 185.402459 
L 283.45237 185.151439 
L 284.04453 184.799752 
L 284.6331 184.551918 
L 285.218123 184.209824 
L 285.992712 183.911963 
L 286.569624 183.569391 
L 287.143129 183.32794 
L 287.713266 182.989583 
L 288.280074 182.751088 
L 288.843593 182.416847 
L 289.40386 182.181237 
L 289.960912 181.876498 
L 291.065519 181.386579 
L 291.613146 181.061889 
L 292.157701 180.832973 
L 292.699218 180.512083 
L 293.237732 180.285832 
L 293.773276 179.968656 
L 294.305882 179.745011 
L 295.187117 179.344382 
L 295.712044 179.033506 
L 296.234148 178.814276 
L 296.75346 178.506895 
L 297.270008 178.290117 
L 297.783823 177.986153 
L 298.294934 177.771775 
L 298.634185 177.600265 
L 299.14085 177.387648 
L 299.644884 177.089487 
L 300.146316 176.87918 
L 300.645171 176.584244 
L 301.141476 176.376199 
L 301.635257 176.084419 
L 302.126539 175.87859 
L 302.615348 175.592319 
L 303.263289 175.346297 
L 303.746422 175.060883 
L 304.227163 174.859522 
L 304.705536 174.577072 
L 305.181563 174.377791 
L 305.655267 174.098244 
L 306.126672 173.901004 
L 306.595799 173.637602 
L 307.527306 173.234638 
L 307.98973 172.961872 
L 308.449962 172.769393 
L 308.908022 172.499343 
L 309.363932 172.308771 
L 309.81771 172.041384 
L 310.419468 171.783692 
L 312.643415 170.657979 
L 313.082156 170.474828 
L 313.518923 170.217806 
L 314.09824 169.99713 
L 314.817559 169.602074 
L 315.246606 169.423055 
L 315.673765 169.171809 
L 316.099054 168.99445 
L 316.522487 168.745522 
L 316.944082 168.569794 
L 317.363854 168.324296 
L 317.920742 168.11485 
L 318.336321 167.870619 
L 318.75013 167.698192 
L 319.162182 167.456158 
L 319.572493 167.285274 
L 320.252514 166.90929 
L 320.658252 166.740425 
L 321.196613 166.470405 
L 321.598433 166.303142 
L 322.26446 165.935084 
L 322.661894 165.769758 
L 323.320689 165.405939 
L 323.713832 165.242508 
L 324.235558 164.981141 
L 324.625021 164.819215 
L 325.270674 164.46284 
L 325.656014 164.302735 
L 326.29487 163.950346 
L 326.676175 163.792023 
L 327.182264 163.538791 
L 327.811187 163.256226 
L 328.436063 162.911788 
L 328.809067 162.75702 
L 329.427573 162.416317 
L 329.796795 162.263219 
L 330.286916 162.01831 
L 330.65289 161.866542 
L 331.259798 161.53241 
L 331.62213 161.38225 
L 332.223028 161.051643 
L 332.581789 160.90306 
L 333.176795 160.579321 
L 333.886022 160.282305 
L 334.473112 159.959579 
L 334.82367 159.814521 
L 335.405135 159.495095 
L 335.752349 159.351513 
L 336.213379 159.121771 
L 336.55772 158.979365 
L 337.128923 158.665754 
L 337.470038 158.524774 
L 338.035913 158.214287 
L 338.59851 157.962885 
L 339.046251 157.740071 
L 339.60304 157.491287 
L 340.156655 157.1878 
L 340.70713 156.942034 
L 341.254502 156.642208 
L 341.9073 156.372992 
L 342.447966 156.076918 
L 342.985638 155.837123 
L 343.520349 155.544543 
L 344.052131 155.307564 
L 344.475469 155.097476 
L 345.00206 154.862837 
L 345.525809 154.576516 
L 346.046749 154.34458 
L 346.564908 154.061541 
L 347.183071 153.807311 
L 347.695217 153.527635 
L 348.204676 153.301054 
L 348.711475 153.024515 
L 349.215643 152.800464 
L 351.107954 151.889419 
L 351.599861 151.621599 
L 352.186878 151.380719 
L 352.673362 151.1158 
L 353.157421 150.901117 
L 353.639079 150.639031 
L 354.213931 150.404456 
L 354.690389 150.144357 
L 355.16452 149.934308 
L 355.636346 149.677852 
L 356.105891 149.469996 
L 356.479899 149.285625 
L 356.666364 149.193727 
L 356.666364 149.193727 
" clip-path="url(#pd46ef651e9)" style="fill: none; stroke: #2ca02c; stroke-width: 1.5; stroke-linecap: square"/>
   </g>
   <g id="line2d_18">
    <path d="M 47.993636 303.541626 
L 50.206282 303.541615 
L 52.369624 301.245832 
L 54.485812 301.245831 
L 56.556858 299.052329 
L 58.584647 299.052336 
L 60.570949 296.952406 
L 62.517429 296.952421 
L 64.425651 294.938421 
L 66.297091 294.938443 
L 68.133139 293.003631 
L 69.93511 293.00366 
L 71.704246 291.142071 
L 73.441721 291.142091 
L 75.148649 289.394485 
L 78.475033 289.347789 
L 80.096442 287.617856 
L 81.691218 287.617823 
L 83.260222 285.946143 
L 84.804272 285.946117 
L 86.324152 284.329412 
L 87.820604 284.329394 
L 89.294342 282.764173 
L 90.746044 282.764161 
L 92.17636 281.247255 
L 93.58591 281.247249 
L 94.975289 279.775773 
L 96.345065 279.775774 
L 97.695786 278.347093 
L 99.027972 278.347099 
L 100.342127 276.958803 
L 101.638731 276.958814 
L 102.918248 275.608689 
L 104.181122 275.608705 
L 105.427779 274.294715 
L 106.658633 274.294736 
L 107.874077 273.015068 
L 109.074494 273.015029 
L 110.26025 271.959665 
L 111.431699 271.767849 
L 112.589182 271.767841 
L 113.733028 270.551589 
L 114.863556 270.551567 
L 115.981071 269.364759 
L 117.085869 269.364742 
L 118.178237 268.205975 
L 119.258451 268.205963 
L 120.32678 267.073945 
L 121.383481 267.073938 
L 122.428804 265.967469 
L 123.462994 265.967466 
L 124.486283 264.885422 
L 125.498899 264.885424 
L 126.501063 263.826754 
L 127.492989 263.82676 
L 128.474883 262.79048 
L 129.446946 262.79049 
L 130.409374 261.775677 
L 131.362354 261.77569 
L 132.306072 260.781477 
L 133.240705 260.781494 
L 134.166427 259.807387 
L 135.083405 259.807084 
L 135.991804 259.423954 
L 136.891783 258.851693 
L 137.783496 258.851677 
L 138.667093 257.914596 
L 139.542722 257.91458 
L 140.410524 256.995109 
L 141.270638 256.995096 
L 142.123199 256.092586 
L 142.96834 256.092577 
L 143.806186 255.206415 
L 144.636865 255.20641 
L 145.460497 254.336017 
L 146.2772 254.336016 
L 147.087091 253.480845 
L 147.890282 253.480846 
L 148.686883 252.640376 
L 149.477001 252.640382 
L 150.260741 251.814118 
L 151.038205 251.814127 
L 151.809493 251.0016 
L 152.574702 251.001612 
L 153.333928 250.202377 
L 154.087262 250.20239 
L 154.834796 249.417745 
L 156.312816 249.38409 
L 157.043474 248.642146 
L 157.768674 248.642131 
L 158.488497 247.880331 
L 159.203022 247.880319 
L 159.912328 247.130224 
L 160.616489 247.130215 
L 161.31558 246.391473 
L 162.009674 246.391466 
L 162.69884 245.66374 
L 163.383149 245.663736 
L 164.062669 244.946704 
L 164.737466 244.946703 
L 165.407605 244.240058 
L 166.073151 244.24006 
L 166.734165 243.543506 
L 167.390709 243.543511 
L 168.042844 242.856767 
L 168.690627 242.856774 
L 169.334118 242.179569 
L 169.973371 242.179579 
L 170.608443 241.511656 
L 171.239388 241.511666 
L 171.866259 240.862244 
L 173.107988 240.852184 
L 173.722948 240.202698 
L 174.334037 240.202685 
L 174.941304 239.561174 
L 175.544796 239.561164 
L 176.14456 238.927993 
L 176.740642 238.927986 
L 177.333087 238.302942 
L 177.921938 238.302937 
L 178.50724 237.685816 
L 179.089034 237.685814 
L 179.667363 237.07642 
L 180.242267 237.07642 
L 180.813787 236.474562 
L 181.381963 236.474564 
L 181.946833 235.88006 
L 182.508436 235.880064 
L 183.066808 235.292738 
L 183.621988 235.292745 
L 184.174012 234.712426 
L 184.722914 234.712435 
L 185.268731 234.138976 
L 185.811496 234.138972 
L 186.351244 233.622975 
L 187.421821 233.572223 
L 187.952715 233.011955 
L 188.480722 233.011945 
L 189.005873 232.458102 
L 189.528198 232.458094 
L 190.047729 231.910493 
L 190.564494 231.910487 
L 191.078524 231.36899 
L 191.589846 231.368987 
L 192.09849 230.833461 
L 192.604483 230.833459 
L 193.107852 230.303775 
L 193.608625 230.303776 
L 194.106829 229.779809 
L 194.602489 229.779811 
L 195.095632 229.26144 
L 195.586282 229.261445 
L 196.074466 228.748552 
L 196.560207 228.748559 
L 197.04353 228.241031 
L 197.524459 228.24104 
L 198.003017 227.738859 
L 198.479228 227.738778 
L 199.4247 227.241666 
L 199.894006 227.241664 
L 200.361054 226.749601 
L 200.825866 226.749592 
L 201.288463 226.262482 
L 201.748867 226.262475 
L 202.207098 225.780212 
L 202.663176 225.780208 
L 203.117122 225.302697 
L 203.568955 225.302694 
L 204.018696 224.829844 
L 204.466362 224.829843 
L 204.911974 224.361563 
L 205.355551 224.361564 
L 205.797109 223.89777 
L 206.236669 223.897773 
L 206.674248 223.438379 
L 207.109863 223.438383 
L 207.543533 222.983307 
L 207.975274 222.983314 
L 208.405104 222.532477 
L 208.83304 222.532485 
L 209.259097 222.08635 
L 210.105644 222.041276 
L 210.526165 221.643242 
L 210.944873 221.643234 
L 211.361783 221.20468 
L 211.77691 221.204672 
L 212.19027 220.77006 
L 212.601878 220.770054 
L 213.011748 220.339314 
L 213.419895 220.33931 
L 213.826333 219.912374 
L 214.231077 219.912372 
L 214.634141 219.489174 
L 215.035538 219.489174 
L 215.435283 219.069651 
L 215.833389 219.069652 
L 216.229869 218.65374 
L 216.624736 218.653743 
L 217.018004 218.241383 
L 217.409686 218.241387 
L 217.799794 217.832518 
L 218.18834 217.832524 
L 218.575338 217.427089 
L 218.960799 217.427096 
L 219.344737 217.02823 
L 220.108086 217.02383 
L 220.487522 216.626319 
L 220.86548 216.626312 
L 221.241973 216.230862 
L 221.617012 216.230856 
L 221.990608 215.838623 
L 222.362771 215.838618 
L 222.733514 215.449548 
L 223.102846 215.449545 
L 223.470779 215.06359 
L 223.837322 215.063588 
L 224.202487 214.680698 
L 224.566284 214.680698 
L 224.928722 214.300826 
L 225.289813 214.300827 
L 225.649565 213.923926 
L 226.00799 213.923928 
L 226.365096 213.549952 
L 226.720894 213.549957 
L 227.075392 213.178862 
L 227.428601 213.178868 
L 227.78053 212.810616 
L 228.131188 212.810617 
L 228.480583 212.463713 
L 229.175625 212.44522 
L 229.521289 212.082464 
L 229.865726 212.082457 
L 230.208946 211.722479 
L 230.550957 211.722474 
L 230.891768 211.365169 
L 231.231386 211.365164 
L 231.56982 211.010493 
L 231.907079 211.010491 
L 232.243171 210.658416 
L 232.578103 210.658415 
L 232.911883 210.308898 
L 233.24452 210.308899 
L 233.576021 209.961905 
L 233.906395 209.961906 
L 234.235647 209.617399 
L 234.563788 209.617402 
L 234.890822 209.275347 
L 235.216759 209.275351 
L 235.541606 208.935714 
L 235.865369 208.935719 
L 236.188056 208.5985 
L 236.509674 208.598473 
L 236.83023 208.35583 
L 237.468185 208.263588 
L 237.785598 207.931006 
L 238.101976 207.931 
L 238.417326 207.600723 
L 238.731656 207.600718 
L 239.044971 207.272697 
L 239.357278 207.272694 
L 239.668584 206.9469 
L 239.978895 206.946898 
L 240.288218 206.623301 
L 240.596558 206.6233 
L 240.903922 206.301872 
L 241.210316 206.301872 
L 241.515746 205.982584 
L 241.820218 205.982585 
L 242.123738 205.665409 
L 242.426313 205.665412 
L 242.727947 205.35032 
L 243.028648 205.350324 
L 243.32842 205.03729 
L 243.627269 205.037295 
L 243.925201 204.726499 
L 244.518336 204.660958 
L 244.813551 204.41731 
L 245.10787 204.417306 
L 245.4013 204.110302 
L 245.693846 204.110297 
L 245.985513 203.805251 
L 246.276307 203.805247 
L 246.566232 203.502133 
L 246.855294 203.50213 
L 247.143498 203.200923 
L 247.430849 203.200921 
L 247.717352 202.901597 
L 248.003012 202.901597 
L 248.287834 202.604134 
L 248.571823 202.604135 
L 248.854984 202.30851 
L 249.137321 202.308512 
L 249.41884 202.014703 
L 249.699544 202.014706 
L 249.97944 201.722692 
L 250.258531 201.722696 
L 250.536822 201.432454 
L 250.814317 201.432459 
L 251.091022 201.14523 
L 251.642077 201.141034 
L 251.916436 200.857223 
L 252.190022 200.857218 
L 252.462839 200.572183 
L 252.734891 200.572179 
L 253.006184 200.288835 
L 253.27672 200.288831 
L 253.546505 200.007159 
L 253.815542 200.007156 
L 254.083836 199.727136 
L 254.351391 199.727134 
L 254.61821 199.448747 
L 254.884298 199.448746 
L 255.149659 199.171973 
L 255.414296 199.171974 
L 255.678214 198.896796 
L 255.941417 198.896798 
L 256.203908 198.623198 
L 256.465691 198.623202 
L 256.72677 198.351162 
L 256.987149 198.351166 
L 257.246832 198.080672 
L 257.505822 198.080675 
L 257.764123 197.819332 
L 258.278672 197.811795 
L 258.534928 197.544257 
L 258.790509 197.544252 
L 259.045419 197.278296 
L 259.299662 197.278292 
L 259.553241 197.013813 
L 259.806159 197.01381 
L 260.05842 196.750791 
L 260.310027 196.750789 
L 260.560984 196.489214 
L 260.811294 196.489213 
L 261.06096 196.229067 
L 261.309986 196.229068 
L 261.558374 195.970336 
L 261.806129 195.970337 
L 262.053254 195.713004 
L 262.29975 195.713006 
L 262.545623 195.457056 
L 262.790875 195.45706 
L 263.035508 195.20248 
L 263.279527 195.202484 
L 263.522934 194.949273 
L 263.765732 194.949265 
L 264.007925 194.73952 
L 264.490505 194.69741 
L 264.730899 194.446838 
L 264.970699 194.446833 
L 265.209908 194.197603 
L 265.448529 194.197599 
L 265.686566 193.94967 
L 265.92402 193.949667 
L 266.160894 193.703024 
L 266.397193 193.703022 
L 266.632917 193.457653 
L 266.868071 193.457652 
L 267.102656 193.213544 
L 267.336676 193.213544 
L 267.570133 192.970684 
L 267.80303 192.970686 
L 268.03537 192.729062 
L 268.267156 192.729064 
L 268.498389 192.488664 
L 268.729073 192.488667 
L 268.95921 192.249478 
L 269.188803 192.249482 
L 269.417854 192.01158 
L 269.874341 191.923541 
L 270.101783 191.774703 
L 270.328693 191.774702 
L 270.555074 191.539085 
L 270.780928 191.539081 
L 271.006258 191.304633 
L 271.231066 191.30463 
L 271.455355 191.071336 
L 271.679127 191.071333 
L 271.902385 190.839182 
L 272.12513 190.839181 
L 272.347366 190.608161 
L 272.569093 190.608161 
L 272.790316 190.378262 
L 273.011036 190.378263 
L 273.231255 190.149474 
L 273.450976 190.149476 
L 273.670201 189.921787 
L 273.888931 189.92179 
L 274.107171 189.695191 
L 274.32492 189.695194 
L 274.542183 189.469675 
L 274.75896 189.469679 
L 274.975254 189.245769 
L 275.406403 189.23819 
L 275.621261 189.02185 
L 275.835645 189.021846 
L 276.049557 188.799517 
L 276.262999 188.799513 
L 276.475972 188.578225 
L 276.688479 188.578222 
L 276.900522 188.357964 
L 277.112103 188.357962 
L 277.323224 188.138726 
L 277.533886 188.138725 
L 277.744093 187.9205 
L 277.953845 187.9205 
L 278.163146 187.703279 
L 278.371996 187.70328 
L 278.580398 187.487053 
L 278.788353 187.487054 
L 278.995864 187.271813 
L 279.202933 187.271815 
L 279.40956 187.05755 
L 279.615749 187.057553 
L 279.821501 186.844257 
L 280.026818 186.84426 
L 280.231702 186.635257 
L 280.640176 186.632001 
L 280.843771 186.420546 
L 281.04694 186.420542 
L 281.249684 186.210108 
L 281.452006 186.210105 
L 281.653907 186.000606 
L 281.85539 186.000604 
L 282.056455 185.792031 
L 282.257104 185.79203 
L 282.45734 185.584376 
L 282.657163 185.584375 
L 282.856576 185.377632 
L 283.055581 185.377632 
L 283.254178 185.171791 
L 283.45237 185.171792 
L 283.650158 184.966847 
L 283.847544 184.966849 
L 284.04453 184.762791 
L 284.241116 184.762794 
L 284.437306 184.559616 
L 284.6331 184.559619 
L 284.8285 184.357321 
L 285.023507 184.357319 
L 285.218123 184.175493 
L 285.60619 184.15593 
L 285.799643 183.955309 
L 285.992712 183.955305 
L 286.185397 183.755586 
L 286.377701 183.755583 
L 286.569624 183.556708 
L 286.761169 183.556706 
L 286.952337 183.358668 
L 287.143129 183.358666 
L 287.333547 183.161459 
L 287.523592 183.161458 
L 287.713266 182.965074 
L 287.90257 182.965074 
L 288.091505 182.769507 
L 288.280074 182.769508 
L 288.468277 182.574751 
L 288.656116 182.574753 
L 288.843593 182.3808 
L 289.030708 182.380802 
L 289.217463 182.187647 
L 289.40386 182.18765 
L 289.589899 181.995324 
L 289.960912 181.89016 
L 292.519048 180.670416 
L 292.699218 180.484169 
L 292.879055 180.484171 
L 293.058559 180.29866 
L 293.237732 180.298662 
L 293.416575 180.113883 
L 293.595089 180.113886 
L 293.773276 179.929833 
L 293.951136 179.929836 
L 294.128671 179.746745 
L 294.48277 179.731165 
L 294.659336 179.563894 
L 294.835582 179.563892 
L 295.011508 179.381991 
L 295.187117 179.381988 
L 295.362408 179.200793 
L 295.537383 179.20079 
L 295.712044 179.020294 
L 295.886391 179.020292 
L 296.060425 178.840489 
L 296.234148 178.840488 
L 296.407561 178.661373 
L 296.580664 178.661373 
L 296.75346 178.482941 
L 296.925948 178.482942 
L 297.098131 178.305189 
L 297.270008 178.30519 
L 297.441582 178.12811 
L 297.612854 178.128112 
L 297.783823 177.9517 
L 297.954493 177.951702 
L 298.124862 177.775954 
L 298.294934 177.775957 
L 298.464707 177.602383 
L 298.803367 177.600767 
L 298.972255 177.426439 
L 299.14085 177.426436 
L 299.309152 177.252657 
L 299.477163 177.252655 
L 299.644884 177.079521 
L 299.812316 177.079518 
L 299.97946 176.907024 
L 300.146316 176.907023 
L 300.312886 176.735164 
L 300.47917 176.735163 
L 300.645171 176.563934 
L 300.810888 176.563934 
L 300.976323 176.393332 
L 301.141476 176.393332 
L 301.306349 176.223352 
L 301.470942 176.223353 
L 301.635257 176.05399 
L 301.799294 176.053992 
L 301.963054 175.885241 
L 302.126539 175.885244 
L 302.289749 175.717105 
L 302.452685 175.717106 
L 302.777739 175.549572 
L 302.939859 175.549654 
L 303.101708 175.38264 
L 303.263289 175.382637 
L 303.4246 175.216304 
L 303.585644 175.216302 
L 303.746422 175.050561 
L 303.906934 175.050559 
L 304.06718 174.885407 
L 304.227163 174.885405 
L 304.386883 174.720837 
L 304.54634 174.720836 
L 304.705536 174.556847 
L 304.864471 174.556847 
L 305.023146 174.393434 
L 305.181563 174.393435 
L 305.339721 174.230594 
L 305.497622 174.230596 
L 305.655267 174.068323 
L 305.812657 174.068325 
L 305.969791 173.906616 
L 306.126672 173.906619 
L 306.283299 173.745489 
L 306.439675 173.745474 
L 306.751672 173.584887 
L 306.907295 173.584899 
L 307.06267 173.424854 
L 307.217796 173.424851 
L 307.681692 173.106433 
L 307.835833 173.106431 
L 308.296793 172.790183 
L 308.449962 172.790182 
L 308.908022 172.476076 
L 309.06023 172.476077 
L 309.515427 172.164083 
L 309.666686 172.164085 
L 310.119055 171.85429 
L 310.419468 171.825321 
L 310.868351 171.546338 
L 311.017519 171.546335 
L 311.463652 171.240528 
L 311.611909 171.240527 
L 312.055326 170.936728 
L 312.202682 170.936727 
L 312.643415 170.63491 
L 312.789882 170.634911 
L 313.227964 170.33505 
L 313.373553 170.335052 
L 313.809014 170.037833 
L 314.09824 170.036312 
L 314.530471 169.741113 
L 314.674121 169.741111 
L 315.103801 169.446985 
L 315.246606 169.446984 
L 315.673765 169.154721 
L 315.815735 169.154721 
L 316.240403 168.864297 
L 316.381548 168.864298 
L 316.803754 168.575691 
L 316.944082 168.575694 
L 317.363854 168.293303 
L 317.642697 168.28902 
L 318.059466 168.003854 
L 318.197992 168.003852 
L 318.612389 167.720576 
L 318.75013 167.720575 
L 319.162182 167.439032 
L 319.299145 167.439032 
L 319.708878 167.159201 
L 319.845073 167.159202 
L 320.252514 166.881063 
L 320.387949 166.881066 
L 320.658252 166.742626 
L 320.927806 166.604603 
L 321.062302 166.604628 
L 321.464677 166.329795 
L 321.598433 166.329793 
L 321.998597 166.056622 
L 322.131619 166.056621 
L 322.529596 165.785066 
L 322.661894 165.785066 
L 323.057707 165.515108 
L 323.189287 165.51511 
L 323.582961 165.246732 
L 323.713832 165.246734 
L 323.975045 165.113133 
L 324.625021 164.847093 
L 325.012927 164.582595 
L 325.141886 164.582593 
L 325.527737 164.319614 
L 325.656014 164.319613 
L 326.039832 164.058136 
L 326.167435 164.058137 
L 326.54924 163.798145 
L 326.676175 163.798147 
L 327.055989 163.539963 
L 327.308375 163.536732 
L 327.685728 163.282564 
L 327.811187 163.282562 
L 328.186595 163.02694 
L 328.311409 163.026938 
L 328.684891 162.772739 
L 328.809067 162.772739 
L 329.180643 162.519947 
L 329.304187 162.519948 
L 329.673877 162.268548 
L 329.796795 162.26855 
L 330.164618 162.020665 
L 330.409061 162.018723 
L 330.774576 161.769879 
L 330.896109 161.769877 
L 331.259798 161.522577 
L 331.380725 161.522576 
L 331.742607 161.276611 
L 331.862935 161.276611 
L 332.223028 161.031968 
L 332.342762 161.031969 
L 332.701083 160.788634 
L 332.820229 160.788636 
L 333.176795 160.559354 
L 333.650188 160.42606 
L 334.003724 160.185945 
L 334.121284 160.185944 
L 334.473112 159.947092 
L 334.590106 159.947091 
L 334.940242 159.709489 
L 335.056674 159.709489 
L 335.405135 159.473124 
L 335.521011 159.473126 
L 335.867812 159.238011 
L 336.098327 159.176876 
L 356.666364 149.191384 
L 356.666364 149.191384 
" clip-path="url(#pd46ef651e9)" style="fill: none; stroke: #d62728; stroke-width: 1.5; stroke-linecap: square"/>
   </g>
   <g id="line2d_19">
    <path d="M 47.993636 235.287598 
L 50.206282 235.297107 
L 52.369624 233.005871 
L 54.485812 233.015381 
L 56.556858 230.826434 
L 58.584647 230.835946 
L 60.570949 228.740581 
L 62.517429 228.750092 
L 64.425651 226.740666 
L 66.297091 226.750179 
L 68.133139 224.819948 
L 69.93511 224.829462 
L 71.704246 222.972476 
L 73.441721 222.981963 
L 75.148649 221.284147 
L 78.475033 221.21187 
L 80.096442 219.48587 
L 81.691218 219.495387 
L 83.260222 217.828231 
L 84.804272 217.837749 
L 86.324152 216.225577 
L 87.820604 216.235096 
L 89.294342 214.674415 
L 90.746044 214.683935 
L 92.17636 213.171577 
L 93.58591 213.181098 
L 94.975289 211.714177 
L 96.345065 211.723698 
L 97.695786 210.29958 
L 99.027972 210.309102 
L 100.342127 208.925375 
L 101.638731 208.934898 
L 102.918248 207.589347 
L 104.181122 207.598871 
L 105.427779 206.289461 
L 106.658633 206.298986 
L 107.874077 205.023968 
L 109.074494 205.033365 
L 110.26025 204.146586 
L 111.431699 203.800272 
L 112.589182 203.8098 
L 113.733028 202.598102 
L 114.863556 202.60763 
L 115.981071 201.425363 
L 117.085869 201.434892 
L 118.178237 200.280671 
L 119.258451 200.290201 
L 120.32678 199.162736 
L 121.383481 199.172267 
L 122.428804 198.070356 
L 123.462994 198.079888 
L 124.486283 197.002407 
L 125.498899 197.01194 
L 126.501063 195.957838 
L 127.492989 195.967372 
L 128.474883 194.935665 
L 129.446946 194.9452 
L 130.409374 193.934964 
L 131.362354 193.9445 
L 132.306072 192.954868 
L 133.240705 192.964404 
L 134.166427 191.995211 
L 135.083405 192.004098 
L 135.991804 191.85973 
L 136.891783 191.062811 
L 137.783496 191.07235 
L 138.667093 190.13982 
L 139.542722 190.14936 
L 140.410524 189.234441 
L 141.270638 189.243982 
L 142.123199 188.346027 
L 142.96834 188.355569 
L 143.806186 187.473967 
L 144.636865 187.48351 
L 145.460497 186.617682 
L 146.2772 186.627226 
L 147.087091 185.776624 
L 147.890282 185.786168 
L 148.686883 184.950272 
L 149.477001 184.959817 
L 150.260741 184.138131 
L 151.038205 184.147677 
L 151.809493 183.339732 
L 152.574702 183.349279 
L 153.333928 182.554628 
L 154.087262 182.564175 
L 154.834796 181.785862 
L 156.312816 181.800172 
L 157.043474 181.032172 
L 157.768674 181.041723 
L 158.488497 180.284481 
L 159.203022 180.294032 
L 159.912328 179.548498 
L 160.616489 179.55805 
L 161.31558 178.823873 
L 162.009674 178.833425 
L 162.69884 178.110267 
L 163.383149 178.119821 
L 164.062669 177.407361 
L 164.737466 177.416916 
L 165.407605 176.714845 
L 166.073151 176.724401 
L 166.734165 176.032426 
L 167.390709 176.041983 
L 168.042844 175.35982 
L 168.690627 175.369378 
L 169.334118 174.696758 
L 169.973371 174.706316 
L 170.608443 174.042984 
L 171.239388 174.052538 
L 171.866259 173.417186 
L 173.107988 173.417354 
L 173.722948 172.771845 
L 174.334037 172.781407 
L 174.941304 172.144462 
L 175.544796 172.154024 
L 176.14456 171.525422 
L 176.740642 171.534985 
L 177.333087 170.914514 
L 177.921938 170.924078 
L 178.50724 170.311533 
L 179.089034 170.321098 
L 179.667363 169.716281 
L 180.242267 169.725848 
L 180.813787 169.128571 
L 181.381963 169.138138 
L 181.946833 168.548218 
L 182.508436 168.557786 
L 183.066808 167.975047 
L 183.621988 167.984615 
L 184.174012 167.408887 
L 184.722914 167.418456 
L 185.268731 166.849606 
L 185.811496 166.859145 
L 186.351244 166.394848 
L 187.421821 166.316095 
L 187.952715 165.760437 
L 188.480722 165.77001 
L 189.005873 165.22074 
L 189.528198 165.230314 
L 190.047729 164.68729 
L 190.564494 164.696864 
L 191.078524 164.159947 
L 191.589846 164.169522 
L 192.09849 163.638578 
L 192.604483 163.648155 
L 193.107852 163.123056 
L 193.608625 163.132633 
L 194.106829 162.613253 
L 194.602489 162.622831 
L 195.095632 162.10905 
L 195.586282 162.118629 
L 196.074466 161.610329 
L 196.560207 161.619909 
L 197.04353 161.116977 
L 197.524459 161.126558 
L 198.003017 160.629068 
L 198.479228 160.638465 
L 198.953115 160.482115 
L 199.4247 160.155523 
L 199.894006 160.165107 
L 200.361054 159.67763 
L 200.825866 159.687215 
L 201.288463 159.204685 
L 201.748867 159.21427 
L 202.207098 158.73659 
L 202.663176 158.746176 
L 203.117122 158.273251 
L 203.568955 158.282838 
L 204.018696 157.814576 
L 204.466362 157.824164 
L 204.911974 157.360475 
L 205.355551 157.370064 
L 205.797109 156.910862 
L 206.236669 156.920452 
L 206.674248 156.465653 
L 207.109863 156.475244 
L 207.543533 156.024766 
L 207.975274 156.034357 
L 208.405104 155.588121 
L 208.83304 155.597713 
L 209.259097 155.156731 
L 210.105644 155.170302 
L 210.526165 154.736844 
L 210.944873 154.746438 
L 211.361783 154.312469 
L 211.77691 154.322065 
L 212.19027 153.89204 
L 212.601878 153.901637 
L 213.011748 153.475486 
L 213.419895 153.485083 
L 213.826333 153.062739 
L 214.231077 153.072338 
L 214.634141 152.653734 
L 215.035538 152.663333 
L 215.435283 152.248407 
L 215.833389 152.258007 
L 216.229869 151.846694 
L 216.624736 151.856295 
L 217.018004 151.448535 
L 217.409686 151.458137 
L 217.799794 151.053871 
L 218.18834 151.063474 
L 218.575338 150.662645 
L 218.960799 150.672247 
L 219.344737 150.281233 
L 220.108086 150.294001 
L 220.487522 149.899877 
L 220.86548 149.909483 
L 221.241973 149.518626 
L 221.617012 149.528233 
L 221.990608 149.140593 
L 222.362771 149.150201 
L 222.733514 148.765727 
L 223.102846 148.775336 
L 223.470779 148.393979 
L 223.837322 148.403589 
L 224.202487 148.025299 
L 224.566284 148.034909 
L 224.928722 147.659639 
L 225.289813 147.66925 
L 225.649565 147.296953 
L 226.00799 147.306566 
L 226.365096 146.937196 
L 226.720894 146.946809 
L 227.075392 146.580322 
L 227.428601 146.589937 
L 227.78053 146.2263 
L 228.131188 146.235904 
L 228.480583 145.911719 
L 229.175625 145.894286 
L 229.521289 145.536192 
L 229.865726 145.545809 
L 230.208946 145.190429 
L 230.550957 145.200047 
L 230.891768 144.847342 
L 231.231386 144.856962 
L 231.56982 144.506893 
L 231.907079 144.516513 
L 232.243171 144.169042 
L 232.578103 144.178663 
L 232.911883 143.833752 
L 233.24452 143.843374 
L 233.576021 143.500988 
L 233.906395 143.510611 
L 234.235647 143.170714 
L 234.563788 143.180338 
L 234.890822 142.842894 
L 235.216759 142.852519 
L 235.541606 142.517495 
L 235.865369 142.52712 
L 236.188056 142.194551 
L 236.509674 142.204109 
L 237.149732 141.883452 
L 237.468185 141.89308 
L 237.785598 141.565116 
L 238.101976 141.574745 
L 238.417326 141.249072 
L 238.731656 141.258702 
L 239.044971 140.935287 
L 239.357278 140.944918 
L 239.668584 140.623732 
L 239.978895 140.633363 
L 240.288218 140.314377 
L 240.596558 140.324009 
L 240.903922 140.007192 
L 241.210316 140.016826 
L 241.515746 139.702151 
L 241.820218 139.711785 
L 242.123738 139.399223 
L 242.426313 139.408859 
L 242.727947 139.098383 
L 243.028648 139.10802 
L 243.32842 138.799604 
L 243.627269 138.809241 
L 243.925201 138.503278 
L 244.518336 138.508096 
L 244.813551 138.217761 
L 245.10787 138.2274 
L 245.4013 137.925007 
L 245.693846 137.934648 
L 245.985513 137.634213 
L 246.276307 137.643854 
L 246.566232 137.345351 
L 246.855294 137.354993 
L 247.143498 137.0584 
L 247.430849 137.068043 
L 247.717352 136.773335 
L 248.003012 136.782979 
L 248.287834 136.490134 
L 248.571823 136.499779 
L 248.854984 136.208773 
L 249.137321 136.218419 
L 249.41884 135.929231 
L 249.699544 135.938877 
L 249.97944 135.651485 
L 250.258531 135.661132 
L 250.536822 135.375515 
L 250.814317 135.385163 
L 251.091022 135.103858 
L 251.642077 135.120565 
L 251.916436 134.838466 
L 252.190022 134.848116 
L 252.462839 134.567697 
L 252.734891 134.577348 
L 253.006184 134.298621 
L 253.27672 134.308274 
L 253.546505 134.031219 
L 253.815542 134.040873 
L 254.083836 133.765472 
L 254.351391 133.775126 
L 254.61821 133.50136 
L 254.884298 133.511015 
L 255.149659 133.238864 
L 255.414296 133.24852 
L 255.678214 132.977968 
L 255.941417 132.987625 
L 256.203908 132.718651 
L 256.465691 132.728309 
L 256.72677 132.460898 
L 256.987149 132.470556 
L 257.246832 132.204694 
L 257.505822 132.214349 
L 257.764123 131.965324 
L 258.278672 131.969331 
L 258.534928 131.706503 
L 258.790509 131.716165 
L 259.045419 131.45483 
L 259.299662 131.464493 
L 259.553241 131.204637 
L 259.806159 131.2143 
L 260.05842 130.955905 
L 260.310027 130.96557 
L 260.560984 130.708621 
L 260.811294 130.718287 
L 261.06096 130.462768 
L 261.309986 130.472435 
L 261.558374 130.218332 
L 261.806129 130.227999 
L 262.053254 129.975296 
L 262.29975 129.984965 
L 262.545623 129.733647 
L 262.790875 129.743317 
L 263.035508 129.49337 
L 263.279527 129.50304 
L 263.522934 129.254479 
L 263.765732 129.264121 
L 264.249515 129.026546 
L 264.490505 129.036219 
L 264.730899 128.7903 
L 264.970699 128.799974 
L 265.209908 128.555371 
L 265.448529 128.565045 
L 265.686566 128.321743 
L 265.92402 128.331419 
L 266.160894 128.089405 
L 266.397193 128.099081 
L 266.632917 127.858344 
L 266.868071 127.868021 
L 267.102656 127.628545 
L 267.336676 127.638223 
L 267.570133 127.399998 
L 267.80303 127.409676 
L 268.03537 127.172688 
L 268.267156 127.182368 
L 268.498389 126.946605 
L 268.729073 126.956286 
L 268.95921 126.721736 
L 269.188803 126.731417 
L 269.417854 126.498245 
L 269.874341 126.484051 
L 270.101783 126.285274 
L 270.328693 126.294958 
L 270.555074 126.063977 
L 270.780928 126.073661 
L 271.006258 125.843846 
L 271.231066 125.853532 
L 271.455355 125.624872 
L 271.679127 125.634559 
L 271.902385 125.407043 
L 272.12513 125.41673 
L 272.347366 125.190348 
L 272.569093 125.200036 
L 272.790316 124.974776 
L 273.011036 124.984465 
L 273.231255 124.760317 
L 273.450976 124.770007 
L 273.670201 124.54696 
L 273.888931 124.556651 
L 274.107171 124.334695 
L 274.32492 124.344387 
L 274.542183 124.123513 
L 274.75896 124.133205 
L 274.975254 123.914502 
L 275.406403 123.932556 
L 275.621261 123.714046 
L 275.835645 123.723741 
L 276.049557 123.50605 
L 276.262999 123.515746 
L 276.475972 123.299096 
L 276.688479 123.308793 
L 276.900522 123.093175 
L 277.112103 123.102873 
L 277.323224 122.888278 
L 277.533886 122.897977 
L 277.744093 122.684396 
L 277.953845 122.694095 
L 278.163146 122.481518 
L 278.371996 122.491219 
L 278.580398 122.279637 
L 278.788353 122.289339 
L 278.995864 122.078744 
L 279.202933 122.088446 
L 279.40956 121.87883 
L 279.615749 121.888533 
L 279.821501 121.679887 
L 280.026818 121.689589 
L 280.231702 121.488674 
L 280.640176 121.501313 
L 280.843771 121.294579 
L 281.04694 121.304285 
L 281.249684 121.098495 
L 281.452006 121.108202 
L 281.653907 120.903348 
L 281.85539 120.913056 
L 282.056455 120.70913 
L 282.257104 120.718839 
L 282.45734 120.515832 
L 282.657163 120.525542 
L 282.856576 120.323447 
L 283.055581 120.333158 
L 283.254178 120.131968 
L 283.45237 120.14168 
L 283.650158 119.941386 
L 283.847544 119.951098 
L 284.04453 119.751693 
L 284.241116 119.761407 
L 284.437306 119.562883 
L 284.6331 119.572598 
L 284.8285 119.374961 
L 285.023507 119.384664 
L 285.412351 119.197597 
L 285.60619 119.207314 
L 285.799643 119.011391 
L 285.992712 119.021109 
L 286.185397 118.826038 
L 286.377701 118.835757 
L 286.569624 118.641532 
L 286.761169 118.651252 
L 286.952337 118.457865 
L 287.143129 118.467586 
L 287.333547 118.275031 
L 287.523592 118.284752 
L 287.713266 118.093022 
L 287.90257 118.102745 
L 288.091505 117.911833 
L 288.280074 117.921556 
L 288.468277 117.731456 
L 288.656116 117.74118 
L 288.843593 117.551885 
L 289.030708 117.56161 
L 289.217463 117.373113 
L 289.40386 117.382839 
L 289.589899 117.195214 
L 289.960912 117.155333 
L 290.145888 117.027671 
L 290.330513 117.037399 
L 290.514787 116.851261 
L 290.698711 116.86099 
L 290.882289 116.675626 
L 291.065519 116.685356 
L 291.248405 116.500759 
L 291.430946 116.51049 
L 291.613146 116.326655 
L 291.795004 116.336386 
L 291.976521 116.153307 
L 292.157701 116.163039 
L 292.338542 115.980709 
L 292.519048 115.990443 
L 292.699218 115.808857 
L 292.879055 115.818591 
L 293.058559 115.637743 
L 293.237732 115.647479 
L 293.416575 115.467363 
L 293.595089 115.477099 
L 293.773276 115.297711 
L 293.951136 115.307448 
L 294.128671 115.129277 
L 294.48277 115.146915 
L 294.659336 114.970307 
L 294.835582 114.980047 
L 295.011508 114.802807 
L 295.187117 114.812547 
L 295.362408 114.636012 
L 295.537383 114.645754 
L 295.712044 114.469919 
L 295.886391 114.479661 
L 296.060425 114.304521 
L 296.234148 114.314264 
L 296.407561 114.139813 
L 296.580664 114.149557 
L 296.75346 113.975791 
L 296.925948 113.985536 
L 297.098131 113.812449 
L 297.270008 113.822195 
L 297.441582 113.649782 
L 297.612854 113.659529 
L 297.783823 113.487786 
L 297.954493 113.497533 
L 298.124862 113.326456 
L 298.294934 113.336203 
L 298.464707 113.16889 
L 298.803367 113.185284 
L 298.972255 113.01552 
L 299.14085 113.025271 
L 299.309152 112.856158 
L 299.477163 112.865909 
L 299.644884 112.697442 
L 299.812316 112.707194 
L 299.97946 112.539367 
L 300.146316 112.549121 
L 300.312886 112.38193 
L 300.47917 112.391685 
L 300.645171 112.225126 
L 300.810888 112.234881 
L 300.976323 112.068949 
L 301.141476 112.078706 
L 301.306349 111.913397 
L 301.470942 111.923154 
L 301.635257 111.758464 
L 301.799294 111.768222 
L 301.963054 111.604146 
L 302.126539 111.613905 
L 302.289749 111.450444 
L 302.452685 111.460198 
L 302.777739 111.307098 
L 302.939859 111.316859 
L 303.101708 111.1546 
L 303.263289 111.164362 
L 303.4246 111.002701 
L 303.585644 111.012464 
L 303.746422 110.851395 
L 303.906934 110.861159 
L 304.06718 110.700679 
L 304.227163 110.710444 
L 304.386883 110.55055 
L 304.54634 110.560315 
L 304.705536 110.401002 
L 304.864471 110.410768 
L 305.023146 110.252032 
L 305.181563 110.261799 
L 305.339721 110.103636 
L 305.497622 110.113404 
L 305.655267 109.95581 
L 305.812657 109.965579 
L 305.969791 109.808551 
L 306.126672 109.818321 
L 306.283299 109.66189 
L 306.595799 109.599091 
L 310.269378 107.9636 
L 310.419468 107.967759 
L 310.868351 107.684692 
L 311.017519 107.694476 
L 311.166458 107.546004 
L 311.315169 107.555789 
L 311.463652 107.407823 
L 311.611909 107.417609 
L 311.75994 107.270145 
L 311.907745 107.279932 
L 312.349816 106.996287 
L 312.496726 107.006076 
L 312.936129 106.724405 
L 313.082156 106.734196 
L 313.518923 106.454475 
L 313.664077 106.464267 
L 313.953735 106.330027 
L 314.09824 106.339815 
L 314.530471 106.062981 
L 314.674121 106.072777 
L 315.103801 105.797826 
L 315.246606 105.807624 
L 315.673765 105.53454 
L 315.815735 105.54434 
L 316.240403 105.273101 
L 316.381548 105.282902 
L 316.803754 105.013485 
L 316.944082 105.023288 
L 317.224132 104.894159 
L 317.503376 104.765477 
L 317.642697 104.775282 
L 318.059466 104.509446 
L 318.197992 104.519253 
L 318.612389 104.255175 
L 318.75013 104.264984 
L 319.162182 104.002643 
L 319.299145 104.012454 
L 319.708878 103.75183 
L 319.845073 103.761642 
L 320.252514 103.502715 
L 320.387949 103.512529 
L 320.658252 103.388604 
L 320.927806 103.265095 
L 321.062302 103.274912 
L 321.464677 103.019322 
L 321.598433 103.02914 
L 321.998597 102.775189 
L 322.131619 102.785009 
L 322.529596 102.532678 
L 322.661894 102.5425 
L 323.057707 102.291772 
L 323.189287 102.301595 
L 323.582961 102.052451 
L 323.713832 102.062277 
L 323.975045 101.943207 
L 324.365552 101.834354 
L 324.754495 101.588327 
L 324.883797 101.598156 
L 325.270674 101.353661 
L 325.39929 101.363493 
L 325.784122 101.120513 
L 325.912061 101.130346 
L 326.29487 100.888865 
L 326.422138 100.898699 
L 326.802945 100.658701 
L 326.929549 100.668537 
L 327.182264 100.554008 
L 327.308375 100.56377 
L 327.685728 100.326042 
L 327.811187 100.335882 
L 328.186595 100.099521 
L 328.311409 100.109363 
L 328.684891 99.874429 
L 328.809067 99.884273 
L 329.180643 99.650752 
L 329.304187 99.660597 
L 329.673877 99.428473 
L 329.796795 99.43832 
L 330.164618 99.211982 
L 330.409061 99.227278 
L 330.774576 98.997907 
L 330.896109 99.007758 
L 331.259798 98.779741 
L 331.380725 98.789594 
L 331.742607 98.562917 
L 331.862935 98.572772 
L 332.223028 98.347422 
L 332.342762 98.357278 
L 332.701083 98.133241 
L 332.820229 98.143099 
L 333.176795 97.945519 
L 333.650188 97.834128 
L 334.003724 97.613317 
L 334.121284 97.62318 
L 334.473112 97.403636 
L 334.590106 97.413501 
L 334.940242 97.195211 
L 335.056674 97.205078 
L 335.405135 96.98803 
L 335.521011 96.997898 
L 335.867812 96.782133 
L 336.098327 96.768433 
L 336.443076 96.587222 
L 336.55772 96.597095 
L 336.900845 96.383701 
L 337.014951 96.393576 
L 337.356466 96.181376 
L 337.470038 96.191253 
L 337.809959 95.980236 
L 337.923002 95.990114 
L 338.261343 95.780268 
L 338.373862 95.790148 
L 338.710639 95.581803 
L 338.934509 95.600646 
L 339.26935 95.393689 
L 339.380708 95.403573 
L 339.714016 95.197175 
L 339.824865 95.20706 
L 340.156655 95.001789 
L 340.267 95.011676 
L 340.597284 94.807522 
L 340.70713 94.817411 
L 341.035923 94.614362 
L 341.145274 94.624253 
L 341.472589 94.424469 
L 341.9073 94.346465 
L 342.232061 94.146138 
L 342.340074 94.156034 
L 342.663393 93.956777 
L 342.770927 93.966675 
L 343.092816 93.768479 
L 343.199876 93.778378 
L 343.520349 93.581234 
L 343.626939 93.591135 
L 343.946007 93.395036 
L 344.158139 93.315396 
L 344.581016 93.229673 
L 344.89697 93.035626 
L 345.211899 92.953844 
L 345.525809 92.761315 
L 345.838708 92.68029 
L 346.150602 92.489257 
L 346.461497 92.40898 
L 346.668209 92.319037 
L 356.666364 88.232227 
L 356.666364 88.232227 
" clip-path="url(#pd46ef651e9)" style="fill: none; stroke: #9467bd; stroke-width: 1.5; stroke-linecap: square"/>
   </g>
   <g id="line2d_20">
    <path d="M 47.993636 166.931498 
L 50.206282 166.945762 
L 52.369624 164.65928 
L 54.485812 164.673545 
L 56.556858 162.489354 
L 58.584647 162.503621 
L 60.570949 160.413012 
L 62.517429 160.42728 
L 64.425651 158.422609 
L 66.297091 158.436879 
L 68.133139 156.511405 
L 69.93511 156.525676 
L 71.704246 154.673461 
L 73.441721 154.687691 
L 75.148649 153.038563 
L 76.826086 152.917598 
L 78.475033 152.931872 
L 80.096442 151.210631 
L 81.691218 151.224906 
L 83.260222 149.562509 
L 84.804272 149.576786 
L 86.324152 147.969373 
L 87.820604 147.983651 
L 89.294342 146.427731 
L 90.746044 146.44201 
L 92.17636 144.934413 
L 93.58591 144.948694 
L 94.975289 143.486533 
L 96.345065 143.500816 
L 97.695786 142.081459 
L 99.027972 142.095742 
L 100.342127 140.716776 
L 101.638731 140.731061 
L 102.918248 139.390272 
L 104.181122 139.404559 
L 105.427779 138.099911 
L 106.658633 138.114199 
L 107.874077 136.844008 
L 109.074494 136.858104 
L 110.26025 136.114373 
L 111.431699 135.634538 
L 112.589182 135.64883 
L 113.733028 134.441896 
L 114.863556 134.456189 
L 115.981071 133.278686 
L 117.085869 133.292981 
L 118.178237 132.143524 
L 119.258451 132.15782 
L 120.32678 131.03512 
L 121.383481 131.049417 
L 122.428804 129.952272 
L 123.462994 129.96657 
L 124.486283 128.893855 
L 125.498899 128.908155 
L 126.501063 127.85882 
L 127.492989 127.873121 
L 128.474883 126.846182 
L 129.446946 126.860484 
L 130.409374 125.855016 
L 131.362354 125.86932 
L 132.306072 124.884457 
L 133.240705 124.898762 
L 134.166427 123.934662 
L 135.991804 123.900882 
L 136.891783 123.016245 
L 137.783496 123.030554 
L 138.667093 122.102794 
L 139.542722 122.117104 
L 140.410524 121.206955 
L 141.270638 121.221267 
L 142.123199 120.328083 
L 142.96834 120.342396 
L 143.806186 119.465566 
L 144.636865 119.47988 
L 145.460497 118.618824 
L 146.2772 118.63314 
L 147.087091 117.78731 
L 147.890282 117.801627 
L 148.686883 116.970503 
L 149.477001 116.984821 
L 150.260741 116.167908 
L 151.038205 116.182228 
L 151.809493 115.379056 
L 152.574702 115.393377 
L 153.333928 114.603502 
L 154.087262 114.617823 
L 154.834796 113.846013 
L 156.312816 113.869409 
L 157.043474 113.10492 
L 157.768674 113.119246 
L 158.488497 112.36678 
L 159.203022 112.381107 
L 159.912328 111.640349 
L 160.616489 111.654678 
L 161.31558 110.925277 
L 162.009674 110.939607 
L 162.69884 110.221226 
L 163.383149 110.235558 
L 164.062669 109.527875 
L 164.737466 109.542208 
L 165.407605 108.844916 
L 166.073151 108.85925 
L 166.734165 108.172053 
L 167.390709 108.186389 
L 168.042844 107.509006 
L 168.690627 107.523343 
L 169.334118 106.855502 
L 169.973371 106.86984 
L 170.608443 106.211291 
L 171.239388 106.225623 
L 171.866259 105.604325 
L 173.107988 105.604782 
L 173.722948 104.964053 
L 174.334037 104.978397 
L 174.941304 104.346233 
L 175.544796 104.360577 
L 176.14456 103.736757 
L 176.740642 103.751103 
L 177.333087 103.135414 
L 177.921938 103.149762 
L 178.50724 102.541999 
L 179.089034 102.556348 
L 179.667363 101.956315 
L 180.242267 101.970665 
L 180.813787 101.378172 
L 181.381963 101.392524 
L 181.946833 100.807388 
L 182.508436 100.821741 
L 183.066808 100.243787 
L 183.621988 100.258141 
L 184.174012 99.687198 
L 184.722914 99.701553 
L 185.268731 99.137505 
L 185.811496 99.151814 
L 186.351244 98.734803 
L 186.888008 98.608765 
L 187.421821 98.623124 
L 187.952715 98.072254 
L 188.480722 98.086614 
L 189.005873 97.542132 
L 189.528198 97.556494 
L 190.047729 97.018257 
L 190.564494 97.03262 
L 191.078524 96.500491 
L 191.589846 96.514856 
L 192.09849 95.988701 
L 192.604483 96.003067 
L 193.107852 95.482757 
L 193.608625 95.497124 
L 194.106829 94.982534 
L 194.602489 94.996903 
L 195.095632 94.487912 
L 195.586282 94.502282 
L 196.074466 93.998773 
L 196.560207 94.013144 
L 197.04353 93.515003 
L 197.524459 93.529376 
L 198.003017 93.036771 
L 198.953115 92.969947 
L 199.4247 92.577511 
L 199.894006 92.591888 
L 200.361054 92.109204 
L 200.825866 92.123582 
L 201.288463 91.645846 
L 201.748867 91.660225 
L 202.207098 91.187339 
L 202.663176 91.201719 
L 203.117122 90.733588 
L 203.568955 90.747971 
L 204.018696 90.284503 
L 204.466362 90.298886 
L 204.911974 89.839993 
L 205.355551 89.854378 
L 205.797109 89.399972 
L 206.236669 89.414358 
L 206.674248 88.964356 
L 207.109863 88.978743 
L 207.543533 88.533062 
L 207.975274 88.547451 
L 208.405104 88.106012 
L 208.83304 88.120402 
L 209.259097 87.684762 
L 210.105644 87.711457 
L 210.526165 87.278726 
L 210.944873 87.29312 
L 211.361783 86.86395 
L 211.77691 86.878345 
L 212.19027 86.453119 
L 212.601878 86.467516 
L 213.011748 86.046165 
L 213.419895 86.060563 
L 213.826333 85.643019 
L 214.231077 85.657419 
L 214.634141 85.243616 
L 215.035538 85.258017 
L 215.435283 84.847891 
L 215.833389 84.862294 
L 216.229869 84.455783 
L 216.624736 84.470186 
L 217.018004 84.067229 
L 217.409686 84.081634 
L 217.799794 83.68217 
L 218.18834 83.696577 
L 218.575338 83.300552 
L 218.960799 83.314957 
L 219.344737 82.931928 
L 220.108086 82.951128 
L 220.487522 82.561805 
L 220.86548 82.576216 
L 221.241973 82.190164 
L 221.617012 82.204576 
L 221.990608 81.821742 
L 222.362771 81.836156 
L 222.733514 81.456488 
L 223.102846 81.470904 
L 223.470779 81.094353 
L 223.837322 81.10877 
L 224.202487 80.735286 
L 224.566284 80.749705 
L 224.928722 80.379242 
L 225.289813 80.393662 
L 225.649565 80.026172 
L 226.00799 80.040593 
L 226.365096 79.676031 
L 226.720894 79.690454 
L 227.075392 79.328776 
L 227.428601 79.3432 
L 227.78053 78.984378 
L 228.131188 78.998787 
L 228.480583 78.696364 
L 229.175625 78.6716 
L 229.521289 78.318316 
L 229.865726 78.332745 
L 230.208946 77.982176 
L 230.550957 77.996606 
L 230.891768 77.648712 
L 231.231386 77.663144 
L 231.56982 77.317887 
L 231.907079 77.33232 
L 232.243171 76.989661 
L 232.578103 77.004095 
L 232.911883 76.663998 
L 233.24452 76.678434 
L 233.576021 76.340861 
L 233.906395 76.355298 
L 234.235647 76.020215 
L 234.563788 76.034653 
L 234.890822 75.702024 
L 235.216759 75.716464 
L 235.541606 75.386255 
L 235.865369 75.400696 
L 236.188056 75.072976 
L 236.509674 75.087316 
L 237.468185 74.790737 
L 237.785598 74.46759 
L 238.101976 74.482036 
L 238.417326 74.16118 
L 238.731656 74.175628 
L 239.044971 73.85703 
L 239.357278 73.87148 
L 239.668584 73.555112 
L 239.978895 73.569562 
L 240.288218 73.255394 
L 240.596558 73.269846 
L 240.903922 72.957848 
L 241.210316 72.972301 
L 241.515746 72.662446 
L 241.820218 72.676901 
L 242.123738 72.369159 
L 242.426313 72.383615 
L 242.727947 72.07796 
L 243.028648 72.092418 
L 243.32842 71.788823 
L 243.627269 71.803282 
L 243.925201 71.50235 
L 244.518336 71.527679 
L 244.813551 71.231091 
L 245.10787 71.245553 
L 245.4013 70.947983 
L 245.693846 70.962447 
L 245.985513 70.666835 
L 246.276307 70.681301 
L 246.566232 70.387622 
L 246.855294 70.402089 
L 247.143498 70.110319 
L 247.430849 70.124788 
L 247.717352 69.834904 
L 248.003012 69.849374 
L 248.287834 69.561353 
L 248.571823 69.575825 
L 248.854984 69.289644 
L 249.137321 69.304117 
L 249.41884 69.019755 
L 249.699544 69.034229 
L 249.97944 68.751663 
L 250.258531 68.766138 
L 250.536822 68.485348 
L 250.814317 68.499824 
L 251.091022 68.224617 
L 251.642077 68.249743 
L 251.916436 67.97244 
L 252.190022 67.98692 
L 252.462839 67.711329 
L 252.734891 67.725811 
L 253.006184 67.451913 
L 253.27672 67.466396 
L 253.546505 67.194171 
L 253.815542 67.208656 
L 254.083836 66.938085 
L 254.351391 66.952571 
L 254.61821 66.683635 
L 254.884298 66.698122 
L 255.149659 66.430803 
L 255.414296 66.445292 
L 255.678214 66.17957 
L 255.941417 66.19406 
L 256.203908 65.929919 
L 256.465691 65.944411 
L 256.72677 65.681831 
L 256.987149 65.696325 
L 257.246832 65.435297 
L 257.505822 65.449785 
L 257.764123 65.212927 
L 258.278672 65.219271 
L 258.534928 64.961277 
L 258.790509 64.975775 
L 259.045419 64.719275 
L 259.299662 64.733775 
L 259.553241 64.478753 
L 259.806159 64.493254 
L 260.05842 64.239694 
L 260.310027 64.254197 
L 260.560984 64.002084 
L 260.811294 64.016588 
L 261.06096 63.765906 
L 261.309986 63.780411 
L 261.558374 63.531145 
L 261.806129 63.545651 
L 262.053254 63.297786 
L 262.29975 63.312294 
L 262.545623 63.065814 
L 262.790875 63.080324 
L 263.035508 62.835216 
L 263.279527 62.849727 
L 263.522934 62.606019 
L 263.765732 62.620488 
L 264.249515 62.392594 
L 264.490505 62.407108 
L 264.730899 62.16603 
L 264.970699 62.180546 
L 265.209908 61.940784 
L 265.448529 61.955301 
L 265.686566 61.716841 
L 265.92402 61.731359 
L 266.160894 61.494188 
L 266.397193 61.508708 
L 266.632917 61.272812 
L 266.868071 61.287334 
L 267.102656 61.052701 
L 267.336676 61.067224 
L 267.570133 60.833842 
L 267.80303 60.848366 
L 268.03537 60.616222 
L 268.267156 60.630747 
L 268.498389 60.399828 
L 268.729073 60.414356 
L 268.95921 60.18465 
L 269.188803 60.199179 
L 269.417854 59.97094 
L 269.874341 59.987343 
L 270.101783 59.772422 
L 270.328693 59.786955 
L 270.555074 59.56082 
L 270.780928 59.575353 
L 271.006258 59.350385 
L 271.231066 59.36492 
L 271.455355 59.141108 
L 271.679127 59.155644 
L 271.902385 58.932976 
L 272.12513 58.947514 
L 272.347366 58.72598 
L 272.569093 58.740519 
L 272.790316 58.520108 
L 273.011036 58.534649 
L 273.231255 58.31535 
L 273.450976 58.329892 
L 273.670201 58.111695 
L 273.888931 58.126238 
L 274.107171 57.909133 
L 274.32492 57.923678 
L 274.542183 57.707654 
L 274.75896 57.7222 
L 274.975254 57.508896 
L 275.406403 57.536336 
L 275.621261 57.322453 
L 275.835645 57.337003 
L 276.049557 57.124164 
L 276.262999 57.138716 
L 276.475972 56.926919 
L 276.688479 56.941472 
L 276.900522 56.730708 
L 277.112103 56.745262 
L 277.323224 56.535521 
L 277.533886 56.550077 
L 277.744093 56.34135 
L 277.953845 56.355907 
L 278.163146 56.148185 
L 278.371996 56.162744 
L 278.580398 55.956018 
L 278.788353 55.970578 
L 278.995864 55.764839 
L 279.202933 55.7794 
L 279.40956 55.57464 
L 279.615749 55.589203 
L 279.821501 55.385415 
L 280.026818 55.399977 
L 280.231702 55.207226 
L 280.640176 55.226279 
L 280.843771 55.024403 
L 281.04694 55.038971 
L 281.249684 54.83804 
L 281.452006 54.852609 
L 281.653907 54.652614 
L 281.85539 54.667185 
L 282.056455 54.468118 
L 282.257104 54.48269 
L 282.45734 54.284544 
L 282.657163 54.299117 
L 282.856576 54.101883 
L 283.055581 54.116458 
L 283.254178 53.920129 
L 283.45237 53.934706 
L 283.650158 53.739273 
L 283.847544 53.753851 
L 284.04453 53.559308 
L 284.241116 53.573888 
L 284.437306 53.380227 
L 284.6331 53.394807 
L 284.8285 53.20204 
L 285.023507 53.216603 
L 285.412351 53.039268 
L 285.60619 53.053852 
L 285.799643 52.862794 
L 285.992712 52.877379 
L 286.185397 52.687174 
L 286.377701 52.701761 
L 286.569624 52.512402 
L 286.761169 52.52699 
L 286.952337 52.33847 
L 287.143129 52.35306 
L 287.333547 52.165372 
L 287.523592 52.179963 
L 287.713266 51.9931 
L 287.90257 52.007693 
L 288.091505 51.821649 
L 288.280074 51.836244 
L 288.468277 51.651012 
L 288.656116 51.665607 
L 288.843593 51.481181 
L 289.030708 51.495778 
L 289.217463 51.312151 
L 289.40386 51.326749 
L 289.589899 51.144033 
L 289.960912 51.140601 
L 290.145888 50.991068 
L 290.330513 51.00567 
L 290.514787 50.824403 
L 290.698711 50.839007 
L 290.882289 50.658514 
L 291.065519 50.673119 
L 291.248405 50.493394 
L 291.430946 50.508 
L 291.613146 50.329037 
L 291.795004 50.343645 
L 291.976521 50.165439 
L 292.157701 50.180048 
L 292.338542 50.002591 
L 292.519048 50.017202 
L 292.699218 49.84049 
L 292.879055 49.855102 
L 293.058559 49.679129 
L 293.237732 49.693742 
L 293.416575 49.518502 
L 293.595089 49.533117 
L 293.773276 49.358604 
L 293.951136 49.373221 
L 294.128671 49.200174 
L 294.48277 49.228553 
L 294.659336 49.055593 
L 294.835582 49.070213 
L 295.011508 48.89785 
L 295.187117 48.912472 
L 295.362408 48.740815 
L 295.537383 48.755438 
L 295.712044 48.584481 
L 295.886391 48.599106 
L 296.060425 48.428844 
L 296.234148 48.44347 
L 296.407561 48.273899 
L 296.580664 48.288526 
L 296.75346 48.11964 
L 296.925948 48.134269 
L 297.098131 47.966062 
L 297.270008 47.980692 
L 297.441582 47.81316 
L 297.612854 47.827792 
L 297.783823 47.66093 
L 297.954493 47.675564 
L 298.124862 47.509368 
L 298.294934 47.524001 
L 298.464707 47.363103 
L 298.803367 47.387738 
L 298.972255 47.222857 
L 299.14085 47.237496 
L 299.309152 47.073266 
L 299.477163 47.087905 
L 299.644884 46.924322 
L 299.812316 46.938963 
L 299.97946 46.776021 
L 300.146316 46.790663 
L 300.312886 46.628358 
L 300.47917 46.643002 
L 300.645171 46.481328 
L 300.810888 46.495974 
L 300.976323 46.334928 
L 301.141476 46.349575 
L 301.306349 46.189153 
L 301.470942 46.203802 
L 301.635257 46.043999 
L 301.799294 46.058648 
L 301.963054 45.89946 
L 302.126539 45.914111 
L 302.289749 45.755542 
L 302.452685 45.770186 
L 302.777739 45.626868 
L 302.939859 45.641523 
L 303.101708 45.484153 
L 303.263289 45.49881 
L 303.4246 45.342038 
L 303.585644 45.356696 
L 303.746422 45.200518 
L 303.906934 45.215177 
L 304.06718 45.059588 
L 304.227163 45.074249 
L 304.386883 44.919246 
L 304.54634 44.933908 
L 304.705536 44.779486 
L 304.864471 44.79415 
L 305.023146 44.640306 
L 305.181563 44.654971 
L 305.339721 44.501701 
L 305.497622 44.516367 
L 305.655267 44.363666 
L 305.812657 44.378334 
L 305.969791 44.2262 
L 306.126672 44.240869 
L 306.283299 44.089351 
L 306.595799 44.060637 
L 307.06267 43.831839 
L 307.217796 43.846514 
L 307.372674 43.696606 
L 307.527306 43.711282 
L 307.681692 43.561921 
L 307.835833 43.576599 
L 307.98973 43.427782 
L 308.143383 43.442461 
L 308.296793 43.294184 
L 308.449962 43.308864 
L 308.602889 43.161124 
L 308.755575 43.175806 
L 308.908022 43.028599 
L 309.06023 43.043282 
L 309.2122 42.896605 
L 309.363932 42.91129 
L 309.515427 42.765139 
L 309.666686 42.779825 
L 309.81771 42.634197 
L 309.9685 42.648884 
L 310.119055 42.504122 
L 310.419468 42.532098 
L 310.569327 42.388562 
L 310.718954 42.403253 
L 310.868351 42.259174 
L 311.017519 42.273866 
L 311.166458 42.130297 
L 311.315169 42.144991 
L 311.463652 42.001927 
L 311.611909 42.016623 
L 311.75994 41.874063 
L 311.907745 41.88876 
L 312.055326 41.746699 
L 312.202682 41.761398 
L 312.349816 41.619834 
L 312.496726 41.634534 
L 312.643415 41.493464 
L 312.789882 41.508165 
L 312.936129 41.367586 
L 313.082156 41.382288 
L 313.227964 41.242196 
L 313.373553 41.256901 
L 313.518923 41.117294 
L 313.664077 41.131999 
L 313.953735 41.00758 
L 314.09824 41.022287 
L 314.530471 40.760178 
L 314.674121 40.774889 
L 315.103801 40.514673 
L 315.246606 40.529387 
L 315.673765 40.271042 
L 315.815735 40.285758 
L 316.240403 40.02926 
L 316.381548 40.04398 
L 316.803754 39.789307 
L 316.944082 39.80403 
L 317.224132 39.684734 
L 317.503376 39.565886 
L 317.642697 39.580612 
L 318.059466 39.329528 
L 318.197992 39.344257 
L 318.612389 39.094933 
L 318.75013 39.109665 
L 319.162182 38.862082 
L 319.299145 38.876817 
L 319.708878 38.630954 
L 319.845073 38.645692 
L 320.252514 38.401529 
L 320.387949 38.41627 
L 320.658252 38.302192 
L 321.732004 37.850038 
L 321.865392 37.864787 
L 322.26446 37.626425 
L 322.397118 37.641177 
L 322.794011 37.404429 
L 322.925949 37.419184 
L 323.320689 37.184033 
L 323.451914 37.19879 
L 323.844527 36.965383 
L 324.105389 36.989129 
L 324.495373 36.76273 
L 324.625021 36.777494 
L 325.012927 36.547029 
L 325.141886 36.561796 
L 325.527737 36.332857 
L 325.656014 36.347627 
L 326.039832 36.120199 
L 326.167435 36.134972 
L 326.54924 35.909037 
L 326.676175 35.923813 
L 327.055989 35.700406 
L 327.308375 35.728913 
L 327.685728 35.505922 
L 327.811187 35.520704 
L 328.186595 35.299157 
L 328.311409 35.313943 
L 328.684891 35.093826 
L 328.809067 35.108615 
L 329.180643 34.889914 
L 329.304187 34.904706 
L 329.673877 34.687406 
L 329.796795 34.7022 
L 330.164618 34.492835 
L 330.409061 34.515882 
L 330.774576 34.301342 
L 330.896109 34.316143 
L 331.259798 34.102961 
L 331.380725 34.117765 
L 331.742607 33.905926 
L 331.862935 33.920733 
L 332.223028 33.710224 
L 332.342762 33.725034 
L 332.701083 33.515841 
L 332.820229 33.530654 
L 333.058085 33.433955 
L 333.29536 33.33758 
L 333.41378 33.352397 
L 333.768177 33.145799 
L 333.886022 33.160618 
L 334.238702 32.955297 
L 334.355978 32.970119 
L 334.706958 32.766063 
L 334.82367 32.780888 
L 335.172967 32.578082 
L 335.28912 32.592911 
L 335.636749 32.391345 
L 335.752349 32.406176 
L 335.983138 32.31327 
L 336.328295 32.235506 
L 336.67223 32.036384 
L 336.786605 32.051222 
L 337.128923 31.853303 
L 337.242761 31.868144 
L 337.583477 31.671417 
L 337.696784 31.686261 
L 338.035913 31.490713 
L 338.148694 31.50556 
L 338.486251 31.311182 
L 338.59851 31.326032 
L 338.822639 31.236703 
L 338.934509 31.251515 
L 339.26935 31.058911 
L 339.380708 31.073766 
L 339.714016 30.882263 
L 339.824865 30.897121 
L 340.156655 30.706749 
L 340.267 30.72161 
L 340.597284 30.532357 
L 340.70713 30.547221 
L 341.035923 30.359078 
L 341.145274 30.373945 
L 341.472589 30.19014 
L 341.9073 30.130966 
L 342.232061 29.945553 
L 342.340074 29.960429 
L 342.663393 29.77609 
L 342.770927 29.790968 
L 343.092816 29.607694 
L 343.199876 29.622575 
L 343.520349 29.440355 
L 343.626939 29.455239 
L 343.946007 29.27407 
L 344.158139 29.210346 
L 344.581016 29.138593 
L 344.89697 28.959481 
L 345.211899 28.89265 
L 345.525809 28.71506 
L 345.838708 28.648991 
L 346.150602 28.472904 
L 346.461497 28.407588 
L 346.668209 28.327616 
L 347.183071 28.183319 
L 347.490683 28.010179 
L 347.797323 27.946341 
L 348.102998 27.774645 
L 348.407713 27.711531 
L 348.711475 27.54126 
L 349.01429 27.478861 
L 349.215643 27.401775 
L 349.516892 27.33985 
L 349.817209 27.171915 
L 350.1166 27.110689 
L 350.41507 26.944132 
L 350.712626 26.883598 
L 351.009273 26.7184 
L 351.305016 26.658548 
L 351.599861 26.496305 
L 351.9916 26.45046 
L 352.28437 26.287934 
L 352.57626 26.229423 
L 352.867276 26.068206 
L 353.157421 26.010353 
L 353.446702 25.85043 
L 353.735124 25.793226 
L 354.022692 25.644464 
L 354.404795 25.592983 
L 354.690389 25.435602 
L 354.975145 25.379677 
L 355.259069 25.223542 
L 355.542164 25.168244 
L 355.824437 25.013341 
L 356.105891 24.958662 
L 356.386532 24.852311 
L 356.666364 24.750909 
L 356.666364 24.750909 
" clip-path="url(#pd46ef651e9)" style="fill: none; stroke: #8c564b; stroke-width: 1.5; stroke-linecap: square"/>
   </g>
   <g id="patch_3">
    <path d="M 32.56 317.72 
L 32.56 10.8 
" style="fill: none; stroke: #000000; stroke-width: 0.8; stroke-linejoin: miter; stroke-linecap: square"/>
   </g>
   <g id="patch_4">
    <path d="M 372.1 317.72 
L 372.1 10.8 
" style="fill: none; stroke: #000000; stroke-width: 0.8; stroke-linejoin: miter; stroke-linecap: square"/>
   </g>
   <g id="patch_5">
    <path d="M 32.56 317.72 
L 372.1 317.72 
" style="fill: none; stroke: #000000; stroke-width: 0.8; stroke-linejoin: miter; stroke-linecap: square"/>
   </g>
   <g id="patch_6">
    <path d="M 32.56 10.8 
L 372.1 10.8 
" style="fill: none; stroke: #000000; stroke-width: 0.8; stroke-linejoin: miter; stroke-linecap: square"/>
   </g>
   <g id="legend_1">
    <g id="patch_7">
     <path d="M 379.1 209.794375 
L 447.775 209.794375 
Q 449.775 209.794375 449.775 207.794375 
L 449.775 120.725625 
Q 449.775 118.725625 447.775 118.725625 
L 379.1 118.725625 
Q 377.1 118.725625 377.1 120.725625 
L 377.1 207.794375 
Q 377.1 209.794375 379.1 209.794375 
z
" style="fill: #ffffff; opacity: 0.8; stroke: #cccccc; stroke-linejoin: miter"/>
    </g>
    <g id="line2d_21">
     <path d="M 381.1 126.824063 
L 391.1 126.824063 
L 401.1 126.824063 
" style="fill: none; stroke: #1f77b4; stroke-width: 1.5; stroke-linecap: square"/>
    </g>
    <g id="text_17">
     <!-- P=0.33 -->
     <g transform="translate(409.1 130.324063) scale(0.1 -0.1)">
      <defs>
       <path id="DejaVuSans-50" d="M 1259 4147 
L 1259 2394 
L 2053 2394 
Q 2494 2394 2734 2622 
Q 2975 2850 2975 3272 
Q 2975 3691 2734 3919 
Q 2494 4147 2053 4147 
L 1259 4147 
z
M 628 4666 
L 2053 4666 
Q 2838 4666 3239 4311 
Q 3641 3956 3641 3272 
Q 3641 2581 3239 2228 
Q 2838 1875 2053 1875 
L 1259 1875 
L 1259 0 
L 628 0 
L 628 4666 
z
" transform="scale(0.015625)"/>
       <path id="DejaVuSans-3d" d="M 678 2906 
L 4684 2906 
L 4684 2381 
L 678 2381 
L 678 2906 
z
M 678 1631 
L 4684 1631 
L 4684 1100 
L 678 1100 
L 678 1631 
z
" transform="scale(0.015625)"/>
      </defs>
      <use xlink:href="#DejaVuSans-50"/>
      <use xlink:href="#DejaVuSans-3d" x="60.302734"/>
      <use xlink:href="#DejaVuSans-30" x="144.091797"/>
      <use xlink:href="#DejaVuSans-2e" x="207.714844"/>
      <use xlink:href="#DejaVuSans-33" x="239.501953"/>
      <use xlink:href="#DejaVuSans-33" x="303.125"/>
     </g>
    </g>
    <g id="line2d_22">
     <path d="M 381.1 141.502188 
L 391.1 141.502188 
L 401.1 141.502188 
" style="fill: none; stroke: #ff7f0e; stroke-width: 1.5; stroke-linecap: square"/>
    </g>
    <g id="text_18">
     <!-- P=0.67 -->
     <g transform="translate(409.1 145.002188) scale(0.1 -0.1)">
      <defs>
       <path id="DejaVuSans-36" d="M 2113 2584 
Q 1688 2584 1439 2293 
Q 1191 2003 1191 1497 
Q 1191 994 1439 701 
Q 1688 409 2113 409 
Q 2538 409 2786 701 
Q 3034 994 3034 1497 
Q 3034 2003 2786 2293 
Q 2538 2584 2113 2584 
z
M 3366 4563 
L 3366 3988 
Q 3128 4100 2886 4159 
Q 2644 4219 2406 4219 
Q 1781 4219 1451 3797 
Q 1122 3375 1075 2522 
Q 1259 2794 1537 2939 
Q 1816 3084 2150 3084 
Q 2853 3084 3261 2657 
Q 3669 2231 3669 1497 
Q 3669 778 3244 343 
Q 2819 -91 2113 -91 
Q 1303 -91 875 529 
Q 447 1150 447 2328 
Q 447 3434 972 4092 
Q 1497 4750 2381 4750 
Q 2619 4750 2861 4703 
Q 3103 4656 3366 4563 
z
" transform="scale(0.015625)"/>
       <path id="DejaVuSans-37" d="M 525 4666 
L 3525 4666 
L 3525 4397 
L 1831 0 
L 1172 0 
L 2766 4134 
L 525 4134 
L 525 4666 
z
" transform="scale(0.015625)"/>
      </defs>
      <use xlink:href="#DejaVuSans-50"/>
      <use xlink:href="#DejaVuSans-3d" x="60.302734"/>
      <use xlink:href="#DejaVuSans-30" x="144.091797"/>
      <use xlink:href="#DejaVuSans-2e" x="207.714844"/>
      <use xlink:href="#DejaVuSans-36" x="239.501953"/>
      <use xlink:href="#DejaVuSans-37" x="303.125"/>
     </g>
    </g>
    <g id="line2d_23">
     <path d="M 381.1 156.180313 
L 391.1 156.180313 
L 401.1 156.180313 
" style="fill: none; stroke: #2ca02c; stroke-width: 1.5; stroke-linecap: square"/>
    </g>
    <g id="text_19">
     <!-- P=1.00 -->
     <g transform="translate(409.1 159.680313) scale(0.1 -0.1)">
      <use xlink:href="#DejaVuSans-50"/>
      <use xlink:href="#DejaVuSans-3d" x="60.302734"/>
      <use xlink:href="#DejaVuSans-31" x="144.091797"/>
      <use xlink:href="#DejaVuSans-2e" x="207.714844"/>
      <use xlink:href="#DejaVuSans-30" x="239.501953"/>
      <use xlink:href="#DejaVuSans-30" x="303.125"/>
     </g>
    </g>
    <g id="line2d_24">
     <path d="M 381.1 170.858438 
L 391.1 170.858438 
L 401.1 170.858438 
" style="fill: none; stroke: #d62728; stroke-width: 1.5; stroke-linecap: square"/>
    </g>
    <g id="text_20">
     <!-- P=2.00 -->
     <g transform="translate(409.1 174.358438) scale(0.1 -0.1)">
      <use xlink:href="#DejaVuSans-50"/>
      <use xlink:href="#DejaVuSans-3d" x="60.302734"/>
      <use xlink:href="#DejaVuSans-32" x="144.091797"/>
      <use xlink:href="#DejaVuSans-2e" x="207.714844"/>
      <use xlink:href="#DejaVuSans-30" x="239.501953"/>
      <use xlink:href="#DejaVuSans-30" x="303.125"/>
     </g>
    </g>
    <g id="line2d_25">
     <path d="M 381.1 185.536563 
L 391.1 185.536563 
L 401.1 185.536563 
" style="fill: none; stroke: #9467bd; stroke-width: 1.5; stroke-linecap: square"/>
    </g>
    <g id="text_21">
     <!-- P=4.00 -->
     <g transform="translate(409.1 189.036563) scale(0.1 -0.1)">
      <use xlink:href="#DejaVuSans-50"/>
      <use xlink:href="#DejaVuSans-3d" x="60.302734"/>
      <use xlink:href="#DejaVuSans-34" x="144.091797"/>
      <use xlink:href="#DejaVuSans-2e" x="207.714844"/>
      <use xlink:href="#DejaVuSans-30" x="239.501953"/>
      <use xlink:href="#DejaVuSans-30" x="303.125"/>
     </g>
    </g>
    <g id="line2d_26">
     <path d="M 381.1 200.214688 
L 391.1 200.214688 
L 401.1 200.214688 
" style="fill: none; stroke: #8c564b; stroke-width: 1.5; stroke-linecap: square"/>
    </g>
    <g id="text_22">
     <!-- P=6.00 -->
     <g transform="translate(409.1 203.714688) scale(0.1 -0.1)">
      <use xlink:href="#DejaVuSans-50"/>
      <use xlink:href="#DejaVuSans-3d" x="60.302734"/>
      <use xlink:href="#DejaVuSans-36" x="144.091797"/>
      <use xlink:href="#DejaVuSans-2e" x="207.714844"/>
      <use xlink:href="#DejaVuSans-30" x="239.501953"/>
      <use xlink:href="#DejaVuSans-30" x="303.125"/>
     </g>
    </g>
   </g>
  </g>
 </g>
 <defs>
  <clipPath id="pd46ef651e9">
   <rect x="32.56" y="10.8" width="339.54" height="306.92"/>
  </clipPath>
 </defs>
</svg>
